<?xml version="1.0" standalone="no"?>
<!DOCTYPE svg PUBLIC "-//W3C//DTD SVG 1.1//EN" "http://www.w3.org/Graphics/SVG/1.1/DTD/svg11.dtd" >
<svg xmlns="http://www.w3.org/2000/svg">
<metadata></metadata>
<defs>
<font id="utm_alter_gothicregular" horiz-adv-x="788" >
<font-face units-per-em="2048" ascent="1638" descent="-410" />
<missing-glyph horiz-adv-x="512" />
<glyph horiz-adv-x="2048" />
<glyph horiz-adv-x="2048" />
<glyph unicode="&#xd;" horiz-adv-x="571" />
<glyph unicode=" "  horiz-adv-x="512" />
<glyph unicode="&#x09;" horiz-adv-x="512" />
<glyph unicode="&#xa0;" horiz-adv-x="512" />
<glyph unicode="!" horiz-adv-x="444" d="M108 1366h225l-49 -954h-127zM122 0v219h199v-219h-199z" />
<glyph unicode="&#x22;" horiz-adv-x="724" d="M100 1366h205l-35 -549h-135zM419 1366h205l-35 -549h-135z" />
<glyph unicode="#" horiz-adv-x="1228" d="M51 408l25 167h223l37 242h-222l25 168h221l60 381h188l-59 -381h243l60 381h190l-59 -381h217l-27 -168h-217l-37 -242h219l-24 -167h-221l-64 -408h-188l63 408h-243l-66 -408h-186l63 408h-221zM485 575h246l37 242h-246z" />
<glyph unicode="$" horiz-adv-x="839" d="M55 178l143 131q25 -28 48.5 -54t50 -45.5t58.5 -30.5t73 -11q71 0 107 47t36 115q0 71 -37 122.5t-92 95.5t-119.5 87t-120 97t-92.5 125t-37 171q0 68 19.5 127t56.5 106.5t91.5 79t121.5 41.5v127h111v-127q90 -12 153.5 -49t122.5 -102l-141 -137q-37 47 -81 75.5 t-105 28.5q-72 0 -111 -43t-39 -113q0 -79 53 -139q35 -37 79 -65.5t85 -57.5q62 -43 115 -86t91 -94t59.5 -113.5t21.5 -144.5q0 -147 -77 -244.5t-226 -115.5v-156h-111v158q-104 14 -174 65t-133 129z" />
<glyph unicode="%" horiz-adv-x="1099" d="M61 887v254q0 49 8 92t29.5 75.5t58.5 51t92 18.5q56 0 91.5 -18.5t57 -51t31 -75.5t9.5 -92v-254q0 -49 -9.5 -92t-31 -76t-57 -52.5t-91.5 -19.5q-55 0 -92 19.5t-58.5 52.5t-29.5 76t-8 92zM184 864q0 -39 9 -72.5t56 -33.5q50 0 59 32.5t9 73.5v297q0 41 -9 75 t-59 34q-24 0 -37.5 -10.5t-19.5 -25.5t-7 -34.5t-1 -38.5v-297zM211 0l565 1366h112l-565 -1366h-112zM661 225v254q0 49 8 92t29.5 76t58.5 51.5t92 18.5q56 0 91.5 -18.5t57 -51.5t31 -76t9.5 -92v-254q0 -49 -8 -93t-29.5 -75.5t-58.5 -51t-93 -19.5q-55 0 -92 19.5 t-58.5 52t-29.5 75.5t-8 92zM782 203q0 -41 9 -74t58 -33q48 0 57 34t9 73v297q0 18 -1 37.5t-7 35t-19.5 25.5t-38.5 10q-49 0 -58 -33.5t-9 -74.5v-297z" />
<glyph unicode="&#x26;" horiz-adv-x="960" d="M67 322q0 57 15.5 109t41 101.5t59.5 94.5t68 86q-41 78 -65.5 158.5t-24.5 168.5q0 64 17.5 124.5t53.5 108.5t88 76.5t124 28.5q59 0 106 -22.5t81 -60.5t51.5 -88t17.5 -107q0 -64 -20.5 -119t-52.5 -105.5t-71.5 -96.5t-76.5 -91q30 -72 69 -139.5t86 -126.5 q31 57 41 102t17 109l182 -23q-8 -98 -31.5 -178t-77.5 -162q27 -34 63 -54.5t77 -31.5v-204q-78 8 -140.5 43.5t-117.5 91.5q-60 -58 -120.5 -93.5t-146.5 -35.5q-69 0 -126.5 27.5t-99.5 73.5t-64.5 106.5t-22.5 128.5zM276 348q0 -26 8 -54t23.5 -51.5t38 -39t53.5 -15.5 q41 0 70.5 19.5t56.5 48.5q-58 61 -103 130t-82 144q-28 -43 -46.5 -86t-18.5 -96zM337 1100q0 -62 15.5 -120t40.5 -114q47 58 80.5 123.5t33.5 143.5q0 38 -16 77t-64 39q-28 0 -45.5 -15t-26.5 -37.5t-13.5 -49.5t-4.5 -47z" />
<glyph unicode="'" horiz-adv-x="405" d="M100 1366h205l-35 -549h-135z" />
<glyph unicode="(" horiz-adv-x="544" d="M67 590q0 227 81 443t216 397l119 -82q-109 -170 -166 -363.5t-57 -394.5t57 -394.5t166 -363.5l-119 -82q-135 180 -216 396t-81 444z" />
<glyph unicode=")" horiz-adv-x="544" d="M61 -168q109 170 166 363.5t57 394.5t-57 394.5t-166 363.5l119 82q135 -181 216 -397t81 -443q0 -228 -81 -444t-216 -396z" />
<glyph unicode="*" horiz-adv-x="626" d="M75 1137l45 143l131 -55l-14 141h151l-12 -141l129 55l47 -143l-137 -31l92 -107l-123 -88l-71 119l-72 -119l-123 88l92 107z" />
<glyph unicode="+" horiz-adv-x="1024" d="M67 600v172h352v338h185v-338h352v-172h-352v-338h-185v338h-352z" />
<glyph unicode="," horiz-adv-x="354" d="M77 0v219h199v-219l-119 -283h-80l92 283h-92z" />
<glyph unicode="-" horiz-adv-x="292" d="M0 434v170h293v-170h-293z" />
<glyph unicode="." horiz-adv-x="354" d="M77 0v219h199v-219h-199z" />
<glyph unicode="/" horiz-adv-x="759" d="M34 -137l506 1503h172l-506 -1503h-172z" />
<glyph unicode="0" horiz-adv-x="839" d="M77 434v498q0 86 14.5 168t53 145.5t104.5 102t170 38.5q86 0 154.5 -30.5t117.5 -102.5q48 -67 60 -154t12 -167v-498q0 -88 -14.5 -170t-52 -145.5t-105.5 -101t-172 -37.5q-84 0 -152.5 30.5t-117.5 100.5q-47 67 -59.5 155t-12.5 168zM274 373q0 -39 4 -76 t19.5 -65.5t44 -46t77.5 -17.5q51 0 81 19.5t44 52t17 71.5t3 80v582q0 39 -3 80t-16 72.5t-43 52t-83 20.5q-49 0 -77.5 -18.5t-44 -47t-19.5 -65.5t-4 -76v-618z" />
<glyph unicode="1" horiz-adv-x="839" d="M167 1044v125q78 35 150.5 83t128.5 114h116v-1366h-198v1044h-197z" />
<glyph unicode="2" horiz-adv-x="839" d="M67 0v184q102 133 213 278.5t195 289.5q38 65 58.5 130.5t20.5 143.5q0 33 -6 63.5t-21.5 55t-41 39t-64.5 14.5q-49 0 -77.5 -21.5t-43 -55.5t-18.5 -74.5t-4 -77.5h-199v41q0 84 21.5 153.5t64.5 118.5t108.5 76.5t153.5 27.5q82 0 144.5 -27.5t104.5 -75.5 t62.5 -114.5t20.5 -144.5t-19.5 -148.5t-52 -137t-74.5 -128t-87 -121.5q-58 -77 -115 -152t-115 -153h435v-184h-664z" />
<glyph unicode="3" horiz-adv-x="839" d="M69 354v35h205q0 -37 4 -76t18.5 -71.5t43 -53t75.5 -20.5q45 0 74 22.5t43 56.5t19 73.5t5 76.5q0 56 -8 98t-29.5 69.5t-59.5 42t-97 16.5v190q104 2 142 45t38 148q0 32 -4 66t-18.5 61.5t-39 46t-65.5 18.5q-35 0 -62.5 -16.5t-44 -43t-22.5 -58t0 -64.5h-199v26 q0 76 24 138.5t68 108.5t105 71.5t137 25.5q86 0 146.5 -29.5t98.5 -80.5t55.5 -121t17.5 -147q0 -105 -31 -176.5t-133 -110.5q61 -19 98 -49.5t56.5 -71.5t25.5 -92t6 -109q0 -86 -19.5 -162.5t-60.5 -133t-108.5 -90t-161.5 -33.5q-84 0 -148.5 28.5t-107.5 78.5 t-64.5 118.5t-21.5 148.5z" />
<glyph unicode="4" horiz-adv-x="839" d="M28 346v213l406 807h215v-836h153v-184h-153v-346h-199v346h-422zM212 530h238v502z" />
<glyph unicode="5" horiz-adv-x="839" d="M92 346v39h199q-2 -8 -2 -16.5v-16.5q0 -35 4 -67.5t17 -59t39 -42t67 -15.5q59 0 88.5 34t41 82t10.5 101t-1 94q0 39 -1 91.5t-13.5 100.5t-41 81.5t-83.5 33.5q-56 0 -85.5 -31.5t-54.5 -76.5h-180l12 688h598v-184h-424l-6 -312q47 41 95.5 62.5t111.5 21.5 q103 0 159 -47t81.5 -118.5t31 -156.5t5.5 -161q0 -94 -11.5 -182t-47.5 -157t-104.5 -110.5t-182.5 -41.5q-86 0 -147.5 27.5t-99.5 75.5t-56.5 115.5t-18.5 147.5z" />
<glyph unicode="6" horiz-adv-x="839" d="M83 459v487q0 84 13.5 168t66.5 154q47 61 114.5 89.5t145.5 28.5q156 0 240 -95t84 -247v-32h-199q0 35 -3 68.5t-15.5 59t-38 42t-70.5 16.5q-57 0 -87 -30.5t-42 -74.5t-12 -95.5v-90.5v-168q41 56 88 82.5t118 26.5q91 0 145 -38t84 -97.5t40 -133t10 -147.5 q0 -86 -15.5 -168t-54.5 -145.5t-105.5 -101t-166.5 -37.5q-107 0 -173.5 40.5t-103 108.5t-50 154t-13.5 176zM280 387q0 -37 5 -76t19.5 -70.5t42 -52t74.5 -20.5q51 0 79.5 24.5t42 62.5t15.5 82t2 83q0 37 -3 80t-16.5 77.5t-41 58t-76.5 23.5t-82 -24.5t-61 -59.5v-188 z" />
<glyph unicode="7" horiz-adv-x="839" d="M77 1182v184h655v-147l-305 -1219h-209l303 1182h-444z" />
<glyph unicode="8" horiz-adv-x="839" d="M73 391q0 53 6 102.5t23.5 92.5t50.5 76.5t86 56.5q-49 22 -79 53t-45 70t-20.5 83t-5.5 95q0 82 19.5 149.5t59.5 115.5t102.5 74.5t148.5 26.5t148.5 -26.5t102.5 -74.5t59.5 -115.5t19.5 -149.5q0 -51 -5 -95t-20.5 -83t-45.5 -70t-79 -53q56 -23 88.5 -57.5t50 -77.5 t22.5 -94.5t5 -104.5q0 -86 -18.5 -160.5t-59.5 -129t-107.5 -85t-160.5 -30.5q-74 0 -139.5 23.5t-116.5 78.5q-59 63 -74.5 144t-15.5 165zM278 393q0 -37 4 -77t19.5 -72.5t43 -54t74.5 -21.5t75 21.5t43 54t19 72.5t4 77t-4 77t-19 71.5t-43 53t-75 21.5t-74.5 -21.5 t-43 -53t-19.5 -71.5t-4 -77zM288 1006q0 -35 5 -69t19.5 -62.5t40 -46t66.5 -17.5t66.5 17.5t40 46t19.5 62.5t5 69q0 32 -5 67t-19.5 62.5t-40 45t-66.5 17.5t-66.5 -17.5t-40 -45t-19.5 -62.5t-5 -67z" />
<glyph unicode="9" horiz-adv-x="839" d="M75 934q0 86 15.5 168t54.5 144.5t104.5 101t165.5 38.5q106 0 173 -41.5t104.5 -109.5t51 -154t13.5 -174v-487q0 -86 -13.5 -169t-68.5 -153q-47 -61 -114.5 -89.5t-145.5 -28.5t-137.5 25.5t-101.5 70.5t-63.5 108.5t-21.5 137.5v32h199q0 -37 3 -69.5t15.5 -59 t38 -42t70.5 -15.5q57 0 86 29.5t41 74.5t13 94.5t1 90.5v170q-41 -56 -88 -82.5t-119 -26.5q-90 0 -144 38t-84 97.5t-39 133t-9 147.5zM280 944q0 -37 3 -79t15.5 -77.5t40 -58t76.5 -22.5t82 22.5t61 61.5v186q0 37 -4 76t-19.5 71.5t-43 53t-74.5 20.5 q-51 0 -78.5 -25.5t-41 -63.5t-15.5 -83t-2 -82z" />
<glyph unicode=":" horiz-adv-x="354" d="M77 0v219h199v-219h-199zM77 799v219h199v-219h-199z" />
<glyph unicode=";" horiz-adv-x="354" d="M77 0v219h199v-219l-119 -283h-80l92 283h-92zM77 799v219h199v-219h-199z" />
<glyph unicode="&#x3c;" horiz-adv-x="1024" d="M67 600v158l889 426v-183l-692 -323l690 -324l2 -182z" />
<glyph unicode="=" horiz-adv-x="1024" d="M67 455v161h889v-161h-889zM67 780v162h889v-162h-889z" />
<glyph unicode="&#x3e;" horiz-adv-x="1024" d="M67 172v184l692 322l-690 323l-2 183l889 -426v-158z" />
<glyph unicode="?" horiz-adv-x="727" d="M40 1098q41 133 120 206.5t224 73.5q59 0 111.5 -17.5t91.5 -51t61.5 -82.5t22.5 -113q0 -76 -30 -133t-71 -119q-38 -59 -64 -101t-40 -83t-19.5 -89t-5.5 -120v-53h-172q-2 28 -3 58t-1 61q0 67 10.5 121.5t29 103.5t44 97t58.5 108q20 34 38.5 72t18.5 79t-24.5 64.5 t-65.5 23.5q-33 0 -55.5 -15t-40 -40t-28.5 -53.5t-20 -53.5zM259 0v219h199v-219h-199z" />
<glyph unicode="@" horiz-adv-x="964" d="M106 332v712q0 91 28.5 155.5t81 106.5t123 61t154.5 19q80 0 149.5 -19t122 -59t83 -102.5t30.5 -148.5v-695h-129l-25 56q-34 -39 -67 -57.5t-86 -18.5q-86 0 -125 42t-39 128v385q0 86 45 136t133 50q41 0 66.5 -11t56.5 -40v43q0 43 -19.5 74t-50 50.5t-68.5 27.5 t-75 8q-43 0 -84 -11.5t-76 -39.5q-43 -35 -51 -76t-8 -94v-637q0 -43 6 -86t33 -78q35 -45 87 -64.5t105 -19.5q113 0 201 66l103 -95q-62 -65 -139 -92.5t-167 -27.5q-84 0 -157.5 21.5t-127 64.5t-84 109.5t-30.5 156.5zM579 559q0 -39 12.5 -58.5t53.5 -19.5t52 20.5 t11 57.5v309q0 39 -11 58.5t-54 19.5q-41 0 -52.5 -20.5t-11.5 -57.5v-309z" />
<glyph unicode="A" horiz-adv-x="923" d="M55 0l262 1366h289l276 -1366h-217l-57 297h-293l-53 -297h-207zM350 492h221l-113 612z" />
<glyph unicode="B" horiz-adv-x="933" d="M104 0v1366h315q86 0 159 -19.5t126 -62.5t84 -108.5t31 -157.5q0 -121 -55.5 -194.5t-170.5 -108.5q48 -15 86.5 -29t75.5 -49q54 -47 75.5 -112.5t21.5 -137.5q0 -188 -111 -287.5t-295 -99.5h-342zM315 195h106q95 0 153 47t58 145q0 109 -68.5 168t-172.5 59h-76 v-419zM315 809h76q90 0 151.5 49t61.5 143q0 97 -60.5 133.5t-148.5 36.5h-80v-362z" />
<glyph unicode="C" horiz-adv-x="909" d="M90 403.5v94.5v383q0 51 1 100t8 97t23.5 93.5t47.5 88.5q51 67 129 96.5t160 29.5q96 0 166.5 -32.5t115.5 -89t66.5 -134t21.5 -167.5v-41h-211q0 43 -4 89t-20.5 86t-48 65.5t-86.5 25.5q-58 0 -89.5 -25.5t-47 -64.5t-18.5 -85t-3 -89v-455q0 -43 2 -94t17.5 -94 t48 -73t92.5 -30q59 0 93 31t49 76t18.5 98t3.5 96h210v-45q0 -96 -18 -179t-62 -144.5t-116 -96t-178 -34.5q-97 0 -174.5 34.5t-130.5 116.5q-27 39 -40.5 84t-19.5 93t-6 95.5z" />
<glyph unicode="D" horiz-adv-x="921" d="M104 0v1366h334q213 0 303 -111.5t90 -316.5v-512q0 -203 -91 -314.5t-302 -111.5h-334zM315 195h102q70 0 111 23.5t61.5 63.5t25.5 92t5 111v396q0 57 -6 110t-26.5 93t-60.5 63.5t-110 23.5h-102v-976z" />
<glyph unicode="E" horiz-adv-x="763" d="M104 0v1366h618v-195h-407v-360h301v-195h-301v-421h407v-195h-618z" />
<glyph unicode="F" horiz-adv-x="751" d="M104 0v1366h625v-195h-414v-368h305v-195h-305v-608h-211z" />
<glyph unicode="G" horiz-adv-x="917" d="M90 504v377q0 51 1 100t8 97t23.5 93.5t47.5 88.5q51 67 129 96.5t160 29.5q96 0 166.5 -32.5t115.5 -89t66.5 -134t21.5 -167.5v-41h-211q0 43 -4 89t-20.5 86t-48 65.5t-86.5 25.5q-58 0 -89.5 -25.5t-47 -64.5t-18.5 -86t-3 -90v-418q0 -45 2 -101.5t17.5 -106.5 t49 -84t97.5 -34q63 0 96 34t46 84t14.5 106.5t1.5 101.5h-175v174h385v-678h-108l-39 117q-51 -70 -109.5 -103.5t-146.5 -33.5q-90 0 -165 39.5t-118 119.5q-45 84 -52 178.5t-7 186.5z" />
<glyph unicode="H" horiz-adv-x="929" d="M104 0v1366h211v-569h299v569h213v-1366h-213v602h-299v-602h-211z" />
<glyph unicode="I" horiz-adv-x="419" d="M104 0v1366h211v-1366h-211z" />
<glyph unicode="J" horiz-adv-x="530" d="M26 0v199q47 0 82 3t58.5 16t35.5 44t12 86v1018h211v-1032q0 -78 -9 -140.5t-37.5 -105.5t-83 -65.5t-142.5 -22.5h-127z" />
<glyph unicode="K" horiz-adv-x="909" d="M104 0v1366h211v-567l305 567h227l-288 -498l329 -868h-231l-229 643l-113 -190v-453h-211z" />
<glyph unicode="L" horiz-adv-x="761" d="M104 0v1366h211v-1171h420v-195h-631z" />
<glyph unicode="M" horiz-adv-x="1202" d="M104 0v1366h309l189 -858l190 858h305v-1366h-200v1004l-240 -1004h-117l-235 1004v-1004h-201z" />
<glyph unicode="N" horiz-adv-x="964" d="M104 0v1366h213l342 -850v850h201v-1366h-189l-366 909v-909h-201z" />
<glyph unicode="O" horiz-adv-x="925" d="M90 434v498q0 86 13.5 168t64.5 153q51 72 130 102.5t165 30.5q88 0 164.5 -30.5t130.5 -102.5q53 -69 65 -153t12 -168v-498q0 -88 -12 -169t-65 -154q-52 -72 -130.5 -101.5t-164.5 -29.5t-164 29.5t-131 101.5q-53 69 -65.5 154t-12.5 169zM301 438q0 -45 3 -91 t18.5 -84t48 -61.5t92.5 -23.5q59 0 92 23.5t48 61.5t18.5 84t3.5 91v490q0 47 -2.5 95t-24.5 91q-21 37 -57.5 55.5t-77.5 18.5q-60 0 -92.5 -23.5t-48 -61.5t-18.5 -84t-3 -91v-490z" />
<glyph unicode="P" horiz-adv-x="890" d="M104 0v1366h350q213 0 304 -102.5t91 -311.5q0 -86 -22.5 -168t-85.5 -143q-59 -57 -134 -72.5t-153 -15.5h-139v-553h-211zM315 748h92q127 0 175 46t48 173q0 123 -52 163.5t-171 40.5h-92v-423z" />
<glyph unicode="Q" horiz-adv-x="925" d="M90 434v498q0 86 13.5 168t64.5 153q53 72 131 102.5t164 30.5q88 0 164.5 -30.5t130.5 -102.5q53 -69 65 -153t12 -168v-498q0 -72 -8 -144.5t-43 -135.5q21 -31 49.5 -42.5t63.5 -15.5v-196q-78 0 -144.5 24.5t-113.5 89.5q-27 -10 -47.5 -17t-41 -11t-43 -5t-48.5 -1 q-86 0 -162 30.5t-129 100.5q-53 69 -65.5 154t-12.5 169zM301 438q0 -45 3 -91t18.5 -84t48 -61.5t92.5 -23.5q59 0 92 23.5t48 61.5t18.5 84t3.5 91v490q0 47 -2.5 95t-24.5 91q-21 37 -57.5 55.5t-77.5 18.5q-60 0 -92.5 -23.5t-48 -61.5t-18.5 -84t-3 -91v-490z" />
<glyph unicode="R" horiz-adv-x="899" d="M104 0v1366h330q192 0 292.5 -99.5t100.5 -291.5q0 -111 -41 -207t-143 -150l200 -618h-221l-180 561h-127v-561h-211zM315 756h78q117 0 166 43t49 164q0 45 -10.5 87t-40.5 76q-31 33 -76 39t-88 6h-78v-415z" />
<glyph unicode="S" horiz-adv-x="872" d="M40 365l203 59q6 -45 20.5 -89t39 -79t61 -56.5t90.5 -21.5q71 0 113 42t42 114q0 63 -38.5 115.5t-98 101.5t-127 97t-127 106.5t-98.5 130t-39 164.5q0 77 27.5 139.5t76 106.5t113 67.5t139.5 23.5q82 0 144.5 -25.5t109.5 -71.5t79 -108.5t50 -136.5l-202 -59 q-9 33 -23 70t-35.5 65.5t-51.5 48t-71 19.5q-59 0 -98 -40t-39 -99q0 -62 39 -113t98.5 -98t127 -96.5t127 -109t98 -134t38.5 -170.5q0 -82 -28.5 -146.5t-79.5 -109.5t-118.5 -68.5t-147.5 -23.5q-189 0 -287 103t-127 282z" />
<glyph unicode="T" horiz-adv-x="768" d="M14 1171v195h741v-195h-266v-1171h-211v1171h-264z" />
<glyph unicode="U" horiz-adv-x="929" d="M104 440v926h211v-960q0 -41 4 -82t19.5 -74t45 -52.5t80.5 -19.5q52 0 81.5 19.5t45 52.5t19.5 74t4 82v960h211v-926q0 -90 -11.5 -177t-66.5 -161q-49 -65 -126 -93.5t-157 -28.5q-84 0 -156.5 28.5t-125.5 93.5q-55 72 -66.5 162t-11.5 176z" />
<glyph unicode="V" horiz-adv-x="886" d="M34 1366h217l207 -1038l180 1038h213l-262 -1366h-262z" />
<glyph unicode="W" horiz-adv-x="1304" d="M40 1366h205l155 -881l164 881h183l180 -881l137 881h199l-232 -1366h-196l-177 926l-165 -926h-197z" />
<glyph unicode="X" horiz-adv-x="921" d="M26 0l305 713l-293 653h234l182 -438l170 438h231l-280 -653l317 -713h-233l-207 496l-195 -496h-231z" />
<glyph unicode="Y" horiz-adv-x="901" d="M34 1366h231l183 -578l190 578h230l-316 -834v-532h-213v532z" />
<glyph unicode="Z" horiz-adv-x="796" d="M40 0v199l477 972h-432v195h664v-195l-476 -976h482v-195h-715z" />
<glyph unicode="[" horiz-adv-x="526" d="M96 -195v1561h354v-178h-161v-1204h161v-179h-354z" />
<glyph unicode="\" horiz-adv-x="1024" d="M53 1536h180l699 -1706h-181z" />
<glyph unicode="]" horiz-adv-x="526" d="M75 -16h160v1204h-160v178h354v-1561h-354v179z" />
<glyph unicode="^" horiz-adv-x="1024" d="M38 729l352 641h242l352 -641h-196l-277 496l-276 -496h-197z" />
<glyph unicode="_" horiz-adv-x="1024" d="M0 -125h1024v-164h-1024v164z" />
<glyph unicode="`" horiz-adv-x="1024" d="M305 1366h199l92 -182h-144z" />
<glyph unicode="a" horiz-adv-x="811" d="M75 256q0 68 19.5 122t68.5 101q70 66 166 108t182 79v53q0 26 -3 53t-13 47.5t-30.5 32.5t-53.5 12q-66 0 -88.5 -44t-24.5 -101h-203q13 153 101 232t241 79q60 0 114 -15.5t95 -62.5q43 -47 49.5 -105.5t6.5 -117.5v-453q0 -69 2 -138.5t20 -137.5h-196 q-11 29 -14 58.5t-3 60.5q-49 -53 -101 -93t-130 -40q-58 0 -96.5 23.5t-63.5 62.5t-35 87t-10 97zM276 268q0 -43 24.5 -78.5t71.5 -35.5t82 27.5t57 64.5v278q-37 -18 -78 -42.5t-75.5 -56.5t-58 -71t-23.5 -86z" />
<glyph unicode="b" horiz-adv-x="792" d="M88 0v1366h193v-451q47 46 101 80.5t122 34.5q76 0 117.5 -42t62 -103.5t24 -130t3.5 -123.5v-244q0 -55 -4.5 -124.5t-24 -131t-61 -103.5t-117.5 -42q-68 0 -122 34.5t-101 79.5v-100h-193zM281 205q30 -23 62 -37t71 -14q41 0 62.5 21.5t30.5 52t10 66.5t1 64v301 q0 31 -1 67t-10 66.5t-30.5 51t-64.5 20.5q-37 0 -70 -15t-61 -36v-608z" />
<glyph unicode="c" horiz-adv-x="772" d="M81 360v295q0 74 9 144.5t54 132.5q46 59 116.5 82.5t142.5 23.5q67 0 130.5 -20.5t110.5 -71.5q53 -57 61.5 -132t8.5 -148h-191q0 34 -2 69t-14 63.5t-36.5 47t-70.5 18.5q-49 0 -75.5 -22.5t-38.5 -57t-13.5 -75.5t-1.5 -78v-246q0 -37 1.5 -77t13.5 -74.5t38.5 -57 t75.5 -22.5q46 0 70.5 19.5t36.5 49t14 66.5t2 71h191v-36q0 -68 -11.5 -132.5t-58.5 -117.5q-47 -54 -111.5 -74t-132.5 -20q-73 0 -140.5 23.5t-115.5 82.5q-45 57 -54 131t-9 143z" />
<glyph unicode="d" horiz-adv-x="792" d="M81 387v244q0 55 3 123.5t21.5 130t60.5 103.5t120 42q67 0 122.5 -34.5t102.5 -80.5v451h191v-1366h-191v100q-47 -45 -102.5 -79.5t-122.5 -34.5q-78 0 -119 42t-60.5 103.5t-22.5 131t-3 124.5zM271 358q0 -28 1.5 -64t11.5 -66.5t31.5 -52t62.5 -21.5q39 0 70.5 14 t62.5 37v608q-29 21 -62.5 36t-70.5 15q-43 0 -65.5 -23.5t-32 -57t-9.5 -72.5v-68v-285z" />
<glyph unicode="e" horiz-adv-x="796" d="M81 360v306q0 79 11.5 154t70.5 134q47 45 107.5 64.5t123.5 19.5q70 0 131.5 -21.5t108.5 -72.5q29 -31 44 -66.5t23.5 -73.5t9.5 -79t1 -80v-168h-441v-92q0 -37 1.5 -78t13.5 -74.5t38.5 -56t78.5 -22.5q43 0 67.5 18t36.5 47t14 63.5t2 69.5h191v-37 q0 -67 -11.5 -128.5t-58.5 -114.5q-47 -54 -111.5 -73t-132.5 -19q-96 0 -157.5 27.5t-97 77.5t-50 119.5t-14.5 155.5zM271 645h250v55q0 35 -4 66t-18.5 54.5t-39 36.5t-65.5 13q-39 0 -63.5 -14t-37.5 -37.5t-17.5 -54.5t-4.5 -64v-55z" />
<glyph unicode="f" horiz-adv-x="501" d="M12 846v172h137q0 76 1 141.5t22.5 114.5t71 76.5t145.5 27.5q61 0 127 -12v-178q-23 6 -42.5 11t-41.5 5q-41 0 -60.5 -18.5t-25.5 -46t-5 -60t1 -61.5h157v-172h-157v-846h-193v846h-137z" />
<glyph unicode="g" horiz-adv-x="827" d="M47 -178q0 37 13.5 63.5t36 46t51 34t59.5 24.5q-49 20 -84 46.5t-35 86.5q0 74 48 106.5t110 51.5q-54 28 -86.5 67t-51 85t-25.5 99.5t-7 108.5q0 80 15 150.5t52 124t96.5 84t149.5 30.5q86 0 143.5 -28.5t104.5 -100.5q24 74 62 100.5t116 26.5v-203q-27 25 -66 25 q-26 0 -41.5 -8t-31.5 -31q20 -80 20 -166q0 -78 -15.5 -148.5t-50 -125t-94 -87t-147.5 -32.5q-18 0 -36.5 2t-37.5 6q-16 -10 -30.5 -23.5t-14.5 -35.5q0 -33 40 -43.5t99.5 -12.5t128 -7t128 -28.5t99.5 -74.5t40 -146q0 -84 -39 -134t-98.5 -76.5t-131 -33.5t-137.5 -7 q-47 0 -107.5 5t-114.5 23.5t-92 55t-38 100.5zM242 -117q0 -33 21.5 -50t51 -24.5t61 -8.5t54.5 -1q20 0 54 1t64.5 9.5t53.5 26t23 49.5q0 29 -18.5 44.5t-45.5 22.5t-55.5 8t-48.5 1l-64 2q-24 2 -50 4t-50 4q-21 -16 -36 -38.5t-15 -49.5zM270 586q0 -31 4 -60.5 t16.5 -53t35 -38t59.5 -14.5t59.5 14.5t35.5 38t17.5 53t4.5 60.5v112q0 31 -4.5 60.5t-17.5 53.5t-35.5 38t-59.5 14t-59.5 -14t-35 -38t-16.5 -53.5t-4 -60.5v-112z" />
<glyph unicode="h" d="M88 0v1366h193v-479q51 59 110 101t141 42q52 0 84.5 -20.5t51 -53t24.5 -75.5t6 -86v-795h-190v745q0 21 -1 41.5t-8.5 38t-22.5 28.5t-42 11q-47 0 -87 -33.5t-66 -68.5v-762h-193z" />
<glyph unicode="i" horiz-adv-x="368" d="M88 0v1018h193v-1018h-193zM88 1167v199h193v-199h-193z" />
<glyph unicode="j" horiz-adv-x="395" d="M-49 -147q16 -3 29.5 -5t29.5 -2q39 0 60.5 17.5t32 43t12.5 57.5t2 63v991h190v-1032q0 -66 -6 -127.5t-51 -114.5q-41 -47 -99.5 -66.5t-119.5 -19.5q-23 0 -41.5 3t-38.5 7v185zM117 1167v199h190v-199h-190z" />
<glyph unicode="k" horiz-adv-x="765" d="M88 0v1366h193v-756l229 408h217l-207 -332l225 -686h-215l-141 475l-108 -172v-303h-193z" />
<glyph unicode="l" horiz-adv-x="368" d="M88 0v1366h193v-1366h-193z" />
<glyph unicode="m" horiz-adv-x="1206" d="M88 0v1018h193v-131q51 59 110 101t141 42q72 0 110 -39t50 -104q53 57 114.5 100t143.5 43q53 0 86 -20.5t51.5 -53t24.5 -74.5t6 -87v-795h-190v745q0 21 -1 41.5t-8.5 38t-22.5 28.5t-42 11q-47 0 -88 -33.5t-68 -68.5v-762h-190v745q0 21 -1 41.5t-8.5 38t-22.5 28.5 t-42 11q-47 0 -87 -33.5t-66 -68.5v-762h-193z" />
<glyph unicode="n" d="M88 0v1018h193v-131q51 59 110 101t141 42q52 0 84.5 -20.5t51 -53t24.5 -75.5t6 -86v-795h-190v745q0 21 -1 41.5t-8.5 38t-22.5 28.5t-42 11q-47 0 -87 -33.5t-66 -68.5v-762h-193z" />
<glyph unicode="o" d="M81 350v316q0 39 1 77.5t9 75.5t24.5 71t45.5 64q47 47 107.5 65.5t123.5 18.5q66 0 125.5 -18.5t106.5 -65.5q30 -28 46.5 -63t24 -72t9.5 -75.5t2 -77.5v-316q0 -80 -11.5 -154.5t-70.5 -134.5q-47 -47 -107.5 -64t-124.5 -17q-65 0 -124.5 18t-106.5 63 q-60 56 -70 133.5t-10 155.5zM271 340q0 -33 4.5 -65.5t16.5 -59.5t35.5 -44t64.5 -17t65.5 16t37 43t16.5 60.5t4 66.5v338q0 33 -4 66.5t-16.5 60t-37 43t-65.5 16.5t-64.5 -17.5t-35.5 -44t-16.5 -59t-4.5 -65.5v-338z" />
<glyph unicode="p" horiz-adv-x="792" d="M88 -348v1366h193v-103q47 48 101 81.5t122 33.5q76 0 117.5 -42t62 -103.5t24 -130t3.5 -123.5v-244q0 -55 -4.5 -124.5t-24 -131t-61 -103.5t-117.5 -42q-68 0 -122 34.5t-101 79.5v-448h-193zM281 205q30 -23 62 -37t71 -14q41 0 62.5 21.5t30.5 52t10 66.5t1 64v301 q0 31 -1 67t-10 66.5t-30.5 51t-64.5 20.5q-37 0 -70 -15t-61 -36v-608z" />
<glyph unicode="q" horiz-adv-x="792" d="M81 387v244q0 55 3 123.5t22.5 130t60.5 103.5t119 42q67 0 122.5 -33.5t102.5 -81.5v103h191v-1366h-191v448q-47 -45 -102.5 -79.5t-122.5 -34.5q-78 0 -119 42t-60.5 103.5t-22.5 131t-3 124.5zM271 360q0 -28 1.5 -64t11.5 -67.5t31.5 -53t62.5 -21.5q39 0 70.5 14 t62.5 37v608q-29 23 -62.5 37t-70.5 14q-41 0 -63.5 -21.5t-31.5 -53t-10.5 -67.5t-1.5 -65v-297z" />
<glyph unicode="r" horiz-adv-x="550" d="M88 0v1018h193v-176q36 92 86.5 140t154.5 48v-219q-22 10 -43.5 14t-46.5 4q-53 0 -83 -18t-45 -49t-19 -70t-4 -80v-612h-193z" />
<glyph unicode="s" horiz-adv-x="741" d="M40 264l178 64q10 -31 23.5 -63t33 -56.5t47 -39.5t66.5 -15q45 0 77 27.5t32 74.5q0 45 -33 78t-82 61.5t-105.5 58t-105.5 69.5t-82 95.5t-33 135.5q0 63 23.5 115.5t63.5 90t94.5 58t115.5 20.5q129 0 207 -64.5t123 -180.5l-174 -76q-10 26 -23.5 53t-32 48.5 t-44 33.5t-58.5 12q-41 0 -70.5 -23.5t-29.5 -66.5q0 -31 18.5 -54.5t45 -44t56 -35.5t52.5 -28q53 -28 109.5 -62t97.5 -77q39 -41 55.5 -90t16.5 -102q0 -142 -88.5 -221.5t-225.5 -79.5q-72 0 -127 20t-97 57t-73 89.5t-51 117.5z" />
<glyph unicode="t" horiz-adv-x="559" d="M22 846v172h145v278h193v-278h174v-172h-174v-541q0 -65 23.5 -105t95.5 -40q22 0 36.5 3t34.5 9v-172q-32 -6 -63 -10t-64 -4q-59 0 -113.5 14t-94.5 61q-39 45 -43.5 106.5t-4.5 117.5v561h-145z" />
<glyph unicode="u" d="M88 221v797h193v-746q0 -20 1 -40.5t8 -38t21.5 -28.5t40.5 -11q47 0 88 32.5t68 69.5v762h190v-1018h-190v131q-49 -59 -110.5 -102t-141.5 -43q-53 0 -86 20.5t-51.5 53t-24.5 75.5t-6 86z" />
<glyph unicode="v" horiz-adv-x="718" d="M20 1018h203l145 -647l129 647h201l-227 -1018h-201z" />
<glyph unicode="w" horiz-adv-x="1105" d="M26 1018h195l122 -635l125 635h174l132 -635l112 635h193l-213 -1018h-183l-131 625l-127 -625h-180z" />
<glyph unicode="x" horiz-adv-x="753" d="M26 0l238 530l-222 488h207l127 -313l119 313h203l-211 -488l239 -530h-206l-146 360l-143 -360h-205z" />
<glyph unicode="y" horiz-adv-x="724" d="M20 1018h201l149 -696l137 696h197l-221 -975q-12 -55 -26.5 -113.5t-38 -110.5t-61.5 -94t-97 -63q-52 -18 -104 -20t-105 -4v196q8 0 15 -1t15 -1q78 0 127.5 44t49.5 124q0 23 -5.5 44.5t-9.5 43.5z" />
<glyph unicode="z" horiz-adv-x="698" d="M47 0v190l385 644h-352v184h571v-193l-385 -641h385v-184h-604z" />
<glyph unicode="{" horiz-adv-x="1024" d="M280 428v152q70 16 93.5 62t23.5 112v348q0 155 71.5 219.5t225.5 64.5h41.5t42.5 -2v-159q-54 0 -91.5 -4t-61 -20.5t-35 -49.5t-11.5 -92v-318q0 -47 -4 -81.5t-16.5 -62.5t-37 -51.5t-65.5 -47.5q78 -47 100.5 -103.5t22.5 -144.5v-307q0 -60 11.5 -94.5t35 -51 t61 -20.5t91.5 -4v-160q-17 0 -32 -1t-32 -1q-84 0 -143.5 14.5t-98 48t-57 91t-18.5 145.5v332q0 69 -21.5 118.5t-95.5 67.5z" />
<glyph unicode="|" horiz-adv-x="1024" d="M419 -512v2048h184v-2048h-184z" />
<glyph unicode="}" horiz-adv-x="1024" d="M274 -227q53 0 91 4t61.5 20.5t35 49t11.5 92.5v317q0 35 5 68.5t15 66.5q17 43 41.5 64.5t63.5 44.5q-78 45 -101.5 101t-23.5 144v310q0 39 -5.5 83t-46.5 66q-28 17 -71 19t-76 2v159q16 0 32.5 1t33.5 1q81 0 141.5 -14t99.5 -48t57.5 -92t18.5 -145v-331 q0 -70 19.5 -119t95.5 -68v-151q-70 -17 -92.5 -63t-22.5 -111v-348q0 -158 -72.5 -221.5t-226.5 -63.5h-42t-42 2v160z" />
<glyph unicode="~" horiz-adv-x="1366" d="M188 1247q25 47 49.5 92t58 80t76.5 56.5t105 21.5q57 0 110.5 -19.5t105.5 -42t101 -42t99 -19.5q34 0 60 10.5t45 26.5t36.5 40t34.5 50l108 -63q-24 -49 -53 -92t-64.5 -77t-82 -53.5t-107.5 -19.5q-53 0 -105.5 19.5t-104.5 42t-101 42t-97 19.5q-32 0 -56.5 -12.5 t-45 -32t-36 -45t-30.5 -49.5z" />
<glyph unicode="&#xa8;" horiz-adv-x="1024" />
<glyph unicode="&#xa9;" horiz-adv-x="1515" d="M55 682q0 145 55.5 274t150.5 224.5t223 150.5t273 55q146 0 274 -55t223 -150.5t150.5 -224.5t55.5 -274t-55.5 -273t-150.5 -223.5t-223 -150.5t-274 -55q-145 0 -273 55t-223 150.5t-150.5 223.5t-55.5 273zM170 682q0 -123 45 -232.5t123.5 -193.5t186.5 -133 t232 -49q125 0 232.5 49t186.5 133t124 193.5t45 232.5t-45 233.5t-124 193.5t-186.5 132t-232.5 49q-124 0 -232 -49t-186.5 -133t-123.5 -193.5t-45 -232.5zM532 571v230q0 43 2 89t19 87q28 67 86.5 97t128.5 30q118 0 177.5 -68.5t59.5 -183.5v-27h-135q0 27 -3 55.5 t-13.5 52t-30.5 38t-55 14.5q-37 0 -56.5 -14.5t-30 -37t-12.5 -51t-2 -55.5v-272q0 -29 2 -60.5t11.5 -57t31 -42t58.5 -16.5t58.5 18.5t31.5 45t12 58t2 60.5h135v-26q0 -121 -54 -198t-185 -77q-60 0 -111 20.5t-86 71.5q-33 47 -37 105.5t-4 113.5z" />
<glyph unicode="&#xad;" horiz-adv-x="292" d="M0 434v170h293v-170h-293z" />
<glyph unicode="&#xae;" horiz-adv-x="993" d="M96 1141q0 84 29.5 161.5t83 137t127 94.5t161.5 35q86 0 160 -36t128 -95.5t84 -136t30 -160.5t-30 -162t-83 -137.5t-127 -95t-162 -35.5t-161.5 35.5t-127 95t-83 137.5t-29.5 162zM155 1141q0 -72 26 -139.5t71 -119t107.5 -82t137.5 -30.5q76 0 138.5 30.5t107.5 83 t69.5 119t24.5 138.5q0 71 -25.5 138t-70.5 118t-107.5 81.5t-136.5 30.5q-73 0 -136.5 -30.5t-108.5 -81.5t-71 -118t-26 -138zM370 915v451h117q66 0 102.5 -33t36.5 -98q0 -37 -13 -68.5t-48 -50.5l70 -201h-86l-62 181h-35v-181h-82zM452 1169h21q37 0 53 11.5t16 50.5 q0 37 -17 49t-52 12h-21v-123z" />
<glyph unicode="&#xb4;" horiz-adv-x="1024" />
<glyph unicode="&#xb6;" horiz-adv-x="1024" d="M93 1086q0 157 107.5 253t285.5 96h443v-70h-127v-1365h-82v1365h-166v-1365h-84v738q-174 8 -275.5 102.5t-101.5 245.5z" />
<glyph unicode="&#xbc;" horiz-adv-x="1378" d="M114 1163v86q43 17 98.5 48.5t83.5 68.5h86v-819h-141v616h-127zM374 -68l512 1502h117l-522 -1502h-107zM837 205v135l262 479h150v-491h98v-123h-98v-205h-142v205h-270zM964 324h147v297z" />
<glyph unicode="&#xbd;" horiz-adv-x="1378" d="M114 1163v86q43 17 98.5 48.5t83.5 68.5h86v-819h-141v616h-127zM374 -68l512 1502h117l-522 -1502h-107zM862 0v119q28 35 72 87t89 108.5t83 112.5t55 97q14 41 14 88q0 39 -17.5 67t-60.5 28q-31 0 -48 -12.5t-25.5 -32t-10.5 -44t-2 -47.5h-141v33q0 111 60.5 169 t170.5 58q105 0 162 -58t57 -163q0 -61 -25.5 -121.5t-64.5 -117t-83 -107.5t-81 -96q-10 -10 -18 -22.5t-19 -22.5h273v-123h-440z" />
<glyph unicode="&#xbe;" horiz-adv-x="1378" d="M53 760v28h143q2 -8 2 -22q2 -41 16.5 -75t65.5 -34q27 0 43.5 12.5t25.5 31t12 41t3 44.5q0 72 -26.5 98.5t-98.5 28.5v127q66 2 92.5 19.5t26.5 87.5q0 41 -15.5 73.5t-62.5 32.5q-43 0 -64.5 -32.5t-10.5 -73.5h-142v20q0 99 62.5 155t158.5 56q107 0 159 -63.5 t52 -165.5q0 -59 -17 -102t-75 -68q68 -21 87.5 -74t19.5 -117q0 -112 -56.5 -184t-175.5 -72q-104 0 -164.5 61.5t-60.5 166.5zM377 -68l512 1502h114l-520 -1502h-106zM839 205v135l261 479h149v-491h100v-123h-100v-205h-141v205h-269zM966 324h146v297z" />
<glyph unicode="&#xc0;" horiz-adv-x="923" d="M55 0l262 1366h289l276 -1366h-217l-57 297h-293l-53 -297h-207zM254 1657h198l95 -182h-146zM350 492h221l-113 612z" />
<glyph unicode="&#xc1;" horiz-adv-x="923" d="M55 0l262 1366h289l276 -1366h-217l-57 297h-293l-53 -297h-207zM350 492h221l-113 612zM364 1475l92 182h199l-147 -182h-144z" />
<glyph unicode="&#xc2;" horiz-adv-x="923" d="M55 0l262 1366h289l276 -1366h-217l-57 297h-293l-53 -297h-207zM225 1475l129 182h215l127 -182h-170l-65 69l-64 -69h-172zM350 492h221l-113 612z" />
<glyph unicode="&#xc3;" horiz-adv-x="923" d="M55 0l262 1366h289l276 -1366h-217l-57 297h-293l-53 -297h-207zM256 1485v141q30 16 57 23.5t61 7.5q52 0 97 -19.5t96 -19.5q31 0 51.5 9t46.5 26v-144q-26 -16 -47.5 -25t-52.5 -9q-49 0 -94 20.5t-97 20.5q-34 0 -61 -7.5t-57 -23.5zM350 492h221l-113 612z" />
<glyph unicode="&#xc8;" horiz-adv-x="763" d="M104 0v1366h618v-195h-407v-360h301v-195h-301v-421h407v-195h-618zM202 1657h199l92 -182h-143z" />
<glyph unicode="&#xc9;" horiz-adv-x="763" d="M104 0v1366h618v-195h-407v-360h301v-195h-301v-421h407v-195h-618zM325 1475l92 182h199l-147 -182h-144z" />
<glyph unicode="&#xca;" horiz-adv-x="763" d="M104 0v1366h618v-195h-407v-360h301v-195h-301v-421h407v-195h-618zM174 1475l129 182h213l129 -182h-172l-64 69l-63 -69h-172z" />
<glyph unicode="&#xcc;" horiz-adv-x="419" d="M2 1657h199l94 -182h-146zM104 0v1366h211v-1366h-211z" />
<glyph unicode="&#xcd;" horiz-adv-x="419" d="M104 0v1366h211v-1366h-211zM124 1475l95 182h198l-149 -182h-144z" />
<glyph unicode="&#xd2;" horiz-adv-x="925" d="M90 434v498q0 86 13.5 168t64.5 153q51 72 130 102.5t165 30.5q88 0 164.5 -30.5t130.5 -102.5q53 -69 65 -153t12 -168v-498q0 -88 -12 -169t-65 -154q-52 -72 -130.5 -101.5t-164.5 -29.5t-164 29.5t-131 101.5q-53 69 -65.5 154t-12.5 169zM256 1657h199l92 -182h-144 zM301 438q0 -45 3 -91t18.5 -84t48 -61.5t92.5 -23.5q59 0 92 23.5t48 61.5t18.5 84t3.5 91v490q0 47 -2.5 95t-24.5 91q-21 37 -57.5 55.5t-77.5 18.5q-60 0 -92.5 -23.5t-48 -61.5t-18.5 -84t-3 -91v-490z" />
<glyph unicode="&#xd3;" horiz-adv-x="925" d="M90 434v498q0 86 13.5 168t64.5 153q51 72 130 102.5t165 30.5q88 0 164.5 -30.5t130.5 -102.5q53 -69 65 -153t12 -168v-498q0 -88 -12 -169t-65 -154q-52 -72 -130.5 -101.5t-164.5 -29.5t-164 29.5t-131 101.5q-53 69 -65.5 154t-12.5 169zM301 438q0 -45 3 -91 t18.5 -84t48 -61.5t92.5 -23.5q59 0 92 23.5t48 61.5t18.5 84t3.5 91v490q0 47 -2.5 95t-24.5 91q-21 37 -57.5 55.5t-77.5 18.5q-60 0 -92.5 -23.5t-48 -61.5t-18.5 -84t-3 -91v-490zM379 1475l92 182h199l-148 -182h-143z" />
<glyph unicode="&#xd4;" horiz-adv-x="925" d="M90 434v498q0 86 13.5 168t64.5 153q51 72 130 102.5t165 30.5q88 0 164.5 -30.5t130.5 -102.5q53 -69 65 -153t12 -168v-498q0 -88 -12 -169t-65 -154q-52 -72 -130.5 -101.5t-164.5 -29.5t-164 29.5t-131 101.5q-53 69 -65.5 154t-12.5 169zM227 1475l129 182h213 l129 -182h-172l-63 69l-64 -69h-172zM301 438q0 -45 3 -91t18.5 -84t48 -61.5t92.5 -23.5q59 0 92 23.5t48 61.5t18.5 84t3.5 91v490q0 47 -2.5 95t-24.5 91q-21 37 -57.5 55.5t-77.5 18.5q-60 0 -92.5 -23.5t-48 -61.5t-18.5 -84t-3 -91v-490z" />
<glyph unicode="&#xd5;" horiz-adv-x="925" d="M90 434v498q0 86 13.5 168t64.5 153q51 72 130 102.5t165 30.5q88 0 164.5 -30.5t130.5 -102.5q53 -69 65 -153t12 -168v-498q0 -88 -12 -169t-65 -154q-52 -72 -130.5 -101.5t-164.5 -29.5t-164 29.5t-131 101.5q-53 69 -65.5 154t-12.5 169zM258 1485v141 q31 16 57.5 23.5t61.5 7.5q51 0 96 -19.5t94 -19.5q31 0 52.5 9t48.5 26v-144q-27 -14 -48.5 -24t-52.5 -10q-49 0 -94 20.5t-96 20.5q-35 0 -61.5 -7.5t-57.5 -23.5zM301 438q0 -45 3 -91t18.5 -84t48 -61.5t92.5 -23.5q59 0 92 23.5t48 61.5t18.5 84t3.5 91v490 q0 47 -2.5 95t-24.5 91q-21 37 -57.5 55.5t-77.5 18.5q-60 0 -92.5 -23.5t-48 -61.5t-18.5 -84t-3 -91v-490z" />
<glyph unicode="&#xd9;" horiz-adv-x="929" d="M104 440v926h211v-960q0 -41 4 -82t19.5 -74t45 -52.5t80.5 -19.5q52 0 81.5 19.5t45 52.5t19.5 74t4 82v960h211v-926q0 -90 -11.5 -177t-66.5 -161q-49 -65 -126 -93.5t-157 -28.5q-84 0 -156.5 28.5t-125.5 93.5q-55 72 -66.5 162t-11.5 176zM258 1657h198l92 -182 h-143z" />
<glyph unicode="&#xda;" horiz-adv-x="929" d="M104 440v926h211v-960q0 -41 4 -82t19.5 -74t45 -52.5t80.5 -19.5q52 0 81.5 19.5t45 52.5t19.5 74t4 82v960h211v-926q0 -90 -11.5 -177t-66.5 -161q-49 -65 -126 -93.5t-157 -28.5q-84 0 -156.5 28.5t-125.5 93.5q-55 72 -66.5 162t-11.5 176zM380 1475l93 182h198 l-147 -182h-144z" />
<glyph unicode="&#xdd;" horiz-adv-x="901" d="M34 1366h231l183 -578l190 578h230l-316 -834v-532h-213v532zM380 1475l92 182h199l-148 -182h-143z" />
<glyph unicode="&#xe0;" horiz-adv-x="811" d="M75 256q0 68 19.5 122t68.5 101q70 66 166 108t182 79v53q0 26 -3 53t-13 47.5t-30.5 32.5t-53.5 12q-66 0 -88.5 -44t-24.5 -101h-203q13 153 101 232t241 79q60 0 114 -15.5t95 -62.5q43 -47 49.5 -105.5t6.5 -117.5v-453q0 -69 2 -138.5t20 -137.5h-196 q-11 29 -14 58.5t-3 60.5q-49 -53 -101 -93t-130 -40q-58 0 -96.5 23.5t-63.5 62.5t-35 87t-10 97zM198 1366h196l95 -182h-144zM276 268q0 -43 24.5 -78.5t71.5 -35.5t82 27.5t57 64.5v278q-37 -18 -78 -42.5t-75.5 -56.5t-58 -71t-23.5 -86z" />
<glyph unicode="&#xe1;" horiz-adv-x="811" d="M75 256q0 68 19.5 122t68.5 101q70 66 166 108t182 79v53q0 26 -3 53t-13 47.5t-30.5 32.5t-53.5 12q-66 0 -88.5 -44t-24.5 -101h-203q13 153 101 232t241 79q60 0 114 -15.5t95 -62.5q43 -47 49.5 -105.5t6.5 -117.5v-453q0 -69 2 -138.5t20 -137.5h-196 q-11 29 -14 58.5t-3 60.5q-49 -53 -101 -93t-130 -40q-58 0 -96.5 23.5t-63.5 62.5t-35 87t-10 97zM276 268q0 -43 24.5 -78.5t71.5 -35.5t82 27.5t57 64.5v278q-37 -18 -78 -42.5t-75.5 -56.5t-58 -71t-23.5 -86zM333 1184l94 182h199l-150 -182h-143z" />
<glyph unicode="&#xe2;" horiz-adv-x="811" d="M75 256q0 68 19.5 122t68.5 101q70 66 166 108t182 79v53q0 26 -3 53t-13 47.5t-30.5 32.5t-53.5 12q-66 0 -88.5 -44t-24.5 -101h-203q13 153 101 232t241 79q60 0 114 -15.5t95 -62.5q43 -47 49.5 -105.5t6.5 -117.5v-453q0 -69 2 -138.5t20 -137.5h-196 q-11 29 -14 58.5t-3 60.5q-49 -53 -101 -93t-130 -40q-58 0 -96.5 23.5t-63.5 62.5t-35 87t-10 97zM181 1184l130 182h215l129 -182h-172l-66 69l-63 -69h-173zM276 268q0 -43 24.5 -78.5t71.5 -35.5t82 27.5t57 64.5v278q-37 -18 -78 -42.5t-75.5 -56.5t-58 -71t-23.5 -86z " />
<glyph unicode="&#xe3;" horiz-adv-x="811" d="M75 256q0 68 19.5 122t68.5 101q70 66 166 108t182 79v53q0 26 -3 53t-13 47.5t-30.5 32.5t-53.5 12q-66 0 -88.5 -44t-24.5 -101h-203q13 153 101 232t241 79q60 0 114 -15.5t95 -62.5q43 -47 49.5 -105.5t6.5 -117.5v-453q0 -69 2 -138.5t20 -137.5h-196 q-11 29 -14 58.5t-3 60.5q-49 -53 -101 -93t-130 -40q-58 0 -96.5 23.5t-63.5 62.5t-35 87t-10 97zM212 1194v141q31 17 57.5 24t61.5 7q51 0 96 -19.5t97 -19.5q30 0 51.5 9.5t48.5 25.5v-143q-27 -15 -49.5 -25t-50.5 -10q-52 0 -97 20.5t-96 20.5q-35 0 -61.5 -7.5 t-57.5 -23.5zM276 268q0 -43 24.5 -78.5t71.5 -35.5t82 27.5t57 64.5v278q-37 -18 -78 -42.5t-75.5 -56.5t-58 -71t-23.5 -86z" />
<glyph unicode="&#xe8;" horiz-adv-x="796" d="M81 360v306q0 79 11.5 154t70.5 134q47 45 107.5 64.5t123.5 19.5q70 0 131.5 -21.5t108.5 -72.5q29 -31 44 -66.5t23.5 -73.5t9.5 -79t1 -80v-168h-441v-92q0 -37 1.5 -78t13.5 -74.5t38.5 -56t78.5 -22.5q43 0 67.5 18t36.5 47t14 63.5t2 69.5h191v-37 q0 -67 -11.5 -128.5t-58.5 -114.5q-47 -54 -111.5 -73t-132.5 -19q-96 0 -157.5 27.5t-97 77.5t-50 119.5t-14.5 155.5zM177 1366h199l92 -182h-143zM271 645h250v55q0 35 -4 66t-18.5 54.5t-39 36.5t-65.5 13q-39 0 -63.5 -14t-37.5 -37.5t-17.5 -54.5t-4.5 -64v-55z" />
<glyph unicode="&#xe9;" horiz-adv-x="796" d="M81 360v306q0 79 11.5 154t70.5 134q47 45 107.5 64.5t123.5 19.5q70 0 131.5 -21.5t108.5 -72.5q29 -31 44 -66.5t23.5 -73.5t9.5 -79t1 -80v-168h-441v-92q0 -37 1.5 -78t13.5 -74.5t38.5 -56t78.5 -22.5q43 0 67.5 18t36.5 47t14 63.5t2 69.5h191v-37 q0 -67 -11.5 -128.5t-58.5 -114.5q-47 -54 -111.5 -73t-132.5 -19q-96 0 -157.5 27.5t-97 77.5t-50 119.5t-14.5 155.5zM271 645h250v55q0 35 -4 66t-18.5 54.5t-39 36.5t-65.5 13q-39 0 -63.5 -14t-37.5 -37.5t-17.5 -54.5t-4.5 -64v-55zM314 1184l93 182h198l-147 -182 h-144z" />
<glyph unicode="&#xea;" horiz-adv-x="796" d="M81 360v306q0 79 11.5 154t70.5 134q47 45 107.5 64.5t123.5 19.5q70 0 131.5 -21.5t108.5 -72.5q29 -31 44 -66.5t23.5 -73.5t9.5 -79t1 -80v-168h-441v-92q0 -37 1.5 -78t13.5 -74.5t38.5 -56t78.5 -22.5q43 0 67.5 18t36.5 47t14 63.5t2 69.5h191v-37 q0 -67 -11.5 -128.5t-58.5 -114.5q-47 -54 -111.5 -73t-132.5 -19q-96 0 -157.5 27.5t-97 77.5t-50 119.5t-14.5 155.5zM163 1184l129 182h213l129 -182h-172l-64 69l-65 -69h-170zM271 645h250v55q0 35 -4 66t-18.5 54.5t-39 36.5t-65.5 13q-39 0 -63.5 -14t-37.5 -37.5 t-17.5 -54.5t-4.5 -64v-55z" />
<glyph unicode="&#xec;" horiz-adv-x="368" d="M-10 1366h199l94 -182h-143zM88 0v1018h193v-1018h-193z" />
<glyph unicode="&#xed;" horiz-adv-x="368" d="M86 1184l94 182h199l-150 -182h-143zM88 0v1018h193v-1018h-193z" />
<glyph unicode="&#xf2;" d="M81 350v316q0 39 1 77.5t9 75.5t24.5 71t45.5 64q47 47 107.5 65.5t123.5 18.5q66 0 125.5 -18.5t106.5 -65.5q30 -28 46.5 -63t24 -72t9.5 -75.5t2 -77.5v-316q0 -80 -11.5 -154.5t-70.5 -134.5q-47 -47 -107.5 -64t-124.5 -17q-65 0 -124.5 18t-106.5 63 q-60 56 -70 133.5t-10 155.5zM173 1366h197l94 -182h-143zM271 340q0 -33 4.5 -65.5t16.5 -59.5t35.5 -44t64.5 -17t65.5 16t37 43t16.5 60.5t4 66.5v338q0 33 -4 66.5t-16.5 60t-37 43t-65.5 16.5t-64.5 -17.5t-35.5 -44t-16.5 -59t-4.5 -65.5v-338z" />
<glyph unicode="&#xf3;" d="M81 350v316q0 39 1 77.5t9 75.5t24.5 71t45.5 64q47 47 107.5 65.5t123.5 18.5q66 0 125.5 -18.5t106.5 -65.5q30 -28 46.5 -63t24 -72t9.5 -75.5t2 -77.5v-316q0 -80 -11.5 -154.5t-70.5 -134.5q-47 -47 -107.5 -64t-124.5 -17q-65 0 -124.5 18t-106.5 63 q-60 56 -70 133.5t-10 155.5zM271 340q0 -33 4.5 -65.5t16.5 -59.5t35.5 -44t64.5 -17t65.5 16t37 43t16.5 60.5t4 66.5v338q0 33 -4 66.5t-16.5 60t-37 43t-65.5 16.5t-64.5 -17.5t-35.5 -44t-16.5 -59t-4.5 -65.5v-338zM308 1184l95 182h198l-149 -182h-144z" />
<glyph unicode="&#xf4;" d="M81 350v316q0 39 1 77.5t9 75.5t24.5 71t45.5 64q47 47 107.5 65.5t123.5 18.5q66 0 125.5 -18.5t106.5 -65.5q30 -28 46.5 -63t24 -72t9.5 -75.5t2 -77.5v-316q0 -80 -11.5 -154.5t-70.5 -134.5q-47 -47 -107.5 -64t-124.5 -17q-65 0 -124.5 18t-106.5 63 q-60 56 -70 133.5t-10 155.5zM157 1184l129 182h215l129 -182h-172l-66 69l-63 -69h-172zM271 340q0 -33 4.5 -65.5t16.5 -59.5t35.5 -44t64.5 -17t65.5 16t37 43t16.5 60.5t4 66.5v338q0 33 -4 66.5t-16.5 60t-37 43t-65.5 16.5t-64.5 -17.5t-35.5 -44t-16.5 -59 t-4.5 -65.5v-338z" />
<glyph unicode="&#xf5;" d="M81 350v316q0 39 1 77.5t9 75.5t24.5 71t45.5 64q47 47 107.5 65.5t123.5 18.5q66 0 125.5 -18.5t106.5 -65.5q30 -28 46.5 -63t24 -72t9.5 -75.5t2 -77.5v-316q0 -80 -11.5 -154.5t-70.5 -134.5q-47 -47 -107.5 -64t-124.5 -17q-65 0 -124.5 18t-106.5 63 q-60 56 -70 133.5t-10 155.5zM187 1194v141q31 17 57.5 24t61.5 7q51 0 96.5 -19.5t96.5 -19.5q31 0 51 9.5t47 25.5v-143q-24 -15 -47 -25t-51 -10q-49 0 -95.5 20.5t-97.5 20.5q-35 0 -61.5 -7.5t-57.5 -23.5zM271 340q0 -33 4.5 -65.5t16.5 -59.5t35.5 -44t64.5 -17 t65.5 16t37 43t16.5 60.5t4 66.5v338q0 33 -4 66.5t-16.5 60t-37 43t-65.5 16.5t-64.5 -17.5t-35.5 -44t-16.5 -59t-4.5 -65.5v-338z" />
<glyph unicode="&#xf7;" horiz-adv-x="1706" />
<glyph unicode="&#xf9;" horiz-adv-x="582" />
<glyph unicode="&#xfa;" horiz-adv-x="580" />
<glyph unicode="&#xfd;" horiz-adv-x="629" />
<glyph unicode="&#x102;" horiz-adv-x="923" d="M55 0l262 1366h289l276 -1366h-217l-57 297h-293l-53 -297h-207zM225 1578h172q67 -78 129 0h170q-73 -153 -232.5 -159t-238.5 159zM350 492h221l-113 612z" />
<glyph unicode="&#x103;" horiz-adv-x="811" d="M75 256q0 68 19.5 122t68.5 101q70 66 166 108t182 79v53q0 26 -3 53t-13 47.5t-30.5 32.5t-53.5 12q-66 0 -88.5 -44t-24.5 -101h-203q13 153 101 232t241 79q60 0 114 -15.5t95 -62.5q43 -47 49.5 -105.5t6.5 -117.5v-453q0 -69 2 -138.5t20 -137.5h-196 q-11 29 -14 58.5t-3 60.5q-49 -53 -101 -93t-130 -40q-58 0 -96.5 23.5t-63.5 62.5t-35 87t-10 97zM175 1265h172q66 -78 129 0h170q-73 -153 -232.5 -159t-238.5 159zM276 268q0 -43 24.5 -78.5t71.5 -35.5t82 27.5t57 64.5v278q-37 -18 -78 -42.5t-75.5 -56.5t-58 -71 t-23.5 -86z" />
<glyph unicode="&#x110;" horiz-adv-x="929" d="M63 616v195h47v555h334q213 0 304 -111.5t91 -316.5v-512q0 -205 -91 -315.5t-304 -110.5h-334v616h-47zM321 195h102q70 0 111 23.5t61.5 63.5t26.5 92t6 111v396q0 57 -6 110t-26.5 93t-61.5 63.5t-111 23.5h-102v-360h158v-195h-158v-421z" />
<glyph unicode="&#x111;" horiz-adv-x="792" d="M81 387v244q0 55 3 123.5t21.5 130t60.5 103.5t120 42q67 0 122.5 -34.5t102.5 -80.5v173h-104v169h104v109h190v-109h45v-169h-45v-1088h-190v100q-47 -45 -102.5 -79.5t-122.5 -34.5q-78 0 -119 42t-60.5 103.5t-22.5 131t-3 124.5zM271 358q0 -28 1 -64t11.5 -66.5 t32 -52t62.5 -21.5q39 0 70.5 14t62.5 37v608q-29 21 -62.5 36t-70.5 15q-43 0 -65.5 -23.5t-32 -57t-9.5 -72.5v-68v-285z" />
<glyph unicode="&#x128;" horiz-adv-x="419" d="M5 1485v141q31 16 57.5 23.5t61.5 7.5q51 0 96 -19.5t96 -19.5q31 0 51.5 9t47.5 26v-144q-27 -16 -48.5 -25t-52.5 -9q-49 0 -94 20.5t-96 20.5q-35 0 -61.5 -7.5t-57.5 -23.5zM104 0v1366h211v-1366h-211z" />
<glyph unicode="&#x129;" horiz-adv-x="368" d="M2 1153v141q31 17 57.5 24t61.5 7q51 0 96 -19.5t96 -19.5q31 0 52.5 9.5t48.5 25.5v-143q-27 -15 -49.5 -25t-51.5 -10q-51 0 -96 20.5t-96 20.5q-35 0 -61.5 -7.5t-57.5 -23.5zM88 0v1018h193v-1018h-193z" />
<glyph unicode="&#x168;" horiz-adv-x="929" d="M104 440v926h211v-960q0 -41 4 -82t19.5 -74t45 -52.5t80.5 -19.5q52 0 81.5 19.5t45 52.5t19.5 74t4 82v960h211v-926q0 -90 -11.5 -177t-66.5 -161q-49 -65 -126 -93.5t-157 -28.5q-84 0 -156.5 28.5t-125.5 93.5q-55 72 -66.5 162t-11.5 176zM258 1485v141 q30 16 57 23.5t61 7.5q52 0 97 -19.5t94 -19.5q31 0 52.5 9t47.5 26v-144q-26 -14 -47.5 -24t-52.5 -10q-49 0 -94 20.5t-97 20.5q-34 0 -61 -7.5t-57 -23.5z" />
<glyph unicode="&#x169;" d="M88 221v797h193v-746q0 -20 1 -40.5t8 -38t21.5 -28.5t40.5 -11q47 0 88 32.5t68 69.5v762h190v-1018h-190v131q-49 -59 -110.5 -102t-141.5 -43q-53 0 -86 20.5t-51.5 53t-24.5 75.5t-6 86zM188 1194v141q31 17 57.5 24t61.5 7q51 0 96 -19.5t97 -19.5q30 0 50.5 9.5 t47.5 25.5v-143q-25 -15 -47.5 -25t-50.5 -10q-50 0 -96 20.5t-97 20.5q-35 0 -61.5 -7.5t-57.5 -23.5z" />
<glyph unicode="&#x1a0;" horiz-adv-x="925" d="M90 434v498q0 86 13.5 168t64.5 153q51 72 130 102.5t165 30.5q88 0 165 -30q47 -19 85 -53l31 97h-71v169h153v-169l-64 -153q50 -66 62 -147q12 -84 12 -168v-498q0 -88 -12.5 -169t-65.5 -154q-51 -72 -130 -101.5t-165 -29.5t-164 29.5t-131 101.5q-53 69 -65.5 154 t-12.5 169zM301 438q0 -45 3 -91t18.5 -84t48 -61.5t92.5 -23.5q59 0 92 23.5t48 61.5t18.5 84t3.5 91v490q0 47 -2 95t-25 91q-20 37 -57 55.5t-78 18.5q-60 0 -92.5 -23.5t-48 -61.5t-18.5 -84t-3 -91v-490z" />
<glyph unicode="&#x1a1;" d="M81 350v316q0 39 1 77.5t9 75.5t24.5 71t45.5 64q47 47 107.5 65.5t123.5 18.5q66 0 126 -18q54 -17 98 -59l32 98h-71v169h153v-169l-65 -157q3 -5 6 -11q16 -35 23 -72t9.5 -75.5t2.5 -77.5v-316q0 -80 -11.5 -154.5t-70.5 -134.5q-47 -47 -107.5 -64t-124.5 -17 q-65 0 -124.5 18t-106.5 63q-60 56 -70 133.5t-10 155.5zM271 340q0 -33 4.5 -65.5t16.5 -59.5t35.5 -44t64.5 -17t65.5 16t37 43t16.5 60.5t4 66.5v338q0 33 -4 66.5t-16.5 60t-37 43t-65.5 16.5t-64.5 -17.5t-35.5 -44t-16.5 -59t-4.5 -65.5v-338z" />
<glyph unicode="&#x1af;" horiz-adv-x="929" d="M104 440v926h211v-960q0 -41 4.5 -82t19.5 -74t45 -52.5t81 -19.5t80.5 19.5t45 52.5t19.5 74t4 82v960h176l11 34h-71v169h153v-169l-58 -139v-821q0 -90 -11 -177t-66 -161q-50 -65 -126.5 -93.5t-156.5 -28.5q-84 0 -156.5 28.5t-126.5 93.5q-55 72 -66.5 162 t-11.5 176z" />
<glyph unicode="&#x1b0;" d="M88 221v797h193v-746q0 -20 1 -40.5t8 -38t21.5 -28.5t40.5 -11q47 0 88 32.5t68 69.5v762h168l13 41h-71v169h153v-169l-73 -175v-884h-190v131q-49 -59 -110.5 -102t-141.5 -43q-53 0 -86 20.5t-51.5 53t-24.5 75.5t-6 86z" />
<glyph unicode="&#x1ea0;" horiz-adv-x="923" d="M55 0l262 1366h289l276 -1366h-217l-57 297h-293l-53 -297h-207zM350 492h221l-113 612zM380 -120h178v-182h-178v182z" />
<glyph unicode="&#x1ea1;" horiz-adv-x="811" d="M75 256q0 68 19.5 122t68.5 101q70 66 166 108t182 79v53q0 26 -3 53t-13 47.5t-30.5 32.5t-53.5 12q-66 0 -88.5 -44t-24.5 -101h-203q13 153 101 232t241 79q60 0 114 -15.5t95 -62.5q43 -47 49.5 -105.5t6.5 -117.5v-453q0 -69 2 -138.5t20 -137.5h-196 q-11 29 -14 58.5t-3 60.5q-49 -53 -101 -93t-130 -40q-58 0 -96.5 23.5t-63.5 62.5t-35 87t-10 97zM276 268q0 -43 24.5 -78.5t71.5 -35.5t82 27.5t57 64.5v278q-37 -18 -78 -42.5t-75.5 -56.5t-58 -71t-23.5 -86zM343 -120h178v-182h-178v182z" />
<glyph unicode="&#x1ea2;" horiz-adv-x="923" d="M55 0l262 1366h289l276 -1366h-217l-57 297h-293l-53 -297h-207zM281 1672q22 69 64.5 109.5t125.5 40.5q33 0 63 -10t51.5 -28.5t33.5 -44.5t12 -56q0 -39 -16 -67.5t-35 -59.5q-20 -30 -33.5 -51.5t-21.5 -44.5q-5 -14 -9 -40h-120q2 19 4 33q5 25 15 49.5t22.5 49 t28.5 54.5q11 17 20 37t9 40q0 21 -8.5 30t-21.5 9q-9 0 -17.5 -6t-16.5 -16.5t-13.5 -25t-13.5 -39.5zM350 492h221l-113 612z" />
<glyph unicode="&#x1ea3;" horiz-adv-x="811" d="M75 256q0 68 19.5 122t68.5 101q70 66 166 108t182 79v53q0 26 -3 53t-13 47.5t-30.5 32.5t-53.5 12q-66 0 -88.5 -44t-24.5 -101h-203q13 153 101 232t241 79q60 0 114 -15.5t95 -62.5q43 -47 49.5 -105.5t6.5 -117.5v-453q0 -69 2 -138.5t20 -137.5h-196 q-11 29 -14 58.5t-3 60.5q-49 -53 -101 -93t-130 -40q-58 0 -96.5 23.5t-63.5 62.5t-35 87t-10 97zM241 1350q22 69 64 109.5t125 40.5q34 0 63.5 -10t51 -28.5t33.5 -44.5t12 -56q0 -39 -15.5 -67.5t-35.5 -59.5q-19 -30 -33 -51.5t-21 -44.5q-5 -14 -9 -40h-120q1 19 4 33 q4 25 14 49.5t23 49t28 54.5q12 17 21 37t9 40q0 21 -9 30t-21 9q-9 0 -17.5 -6t-16.5 -16.5t-14 -25t-13 -39.5zM276 268q0 -43 24.5 -78.5t71.5 -35.5t82 27.5t57 64.5v278q-37 -18 -78 -42.5t-75.5 -56.5t-58 -71t-23.5 -86z" />
<glyph unicode="&#x1ea4;" horiz-adv-x="923" d="M55 0l262 1366h289l276 -1366h-217l-57 297h-293l-53 -297h-207zM225 1475l129 182h215l127 -182h-170l-65 69l-64 -69h-172zM350 492h221l-113 612zM391 1699l94 182h199l-148 -182h-145z" />
<glyph unicode="&#x1ea5;" horiz-adv-x="811" d="M75 256q0 68 19.5 122t68.5 101q70 66 166 108t182 79v53q0 26 -3 53t-13 47.5t-30.5 32.5t-53.5 12q-66 0 -88.5 -44t-24.5 -101h-203q13 153 101 232t241 79q60 0 114 -15.5t95 -62.5q43 -47 49.5 -105.5t6.5 -117.5v-453q0 -69 2 -138.5t20 -137.5h-196 q-11 29 -14 58.5t-3 60.5q-49 -53 -101 -93t-130 -40q-58 0 -96.5 23.5t-63.5 62.5t-35 87t-10 97zM181 1184l130 182h215l129 -182h-172l-66 69l-63 -69h-173zM276 268q0 -43 24.5 -78.5t71.5 -35.5t82 27.5t57 64.5v278q-37 -18 -78 -42.5t-75.5 -56.5t-58 -71t-23.5 -86z M359 1414l94 182h197l-148 -182h-143z" />
<glyph unicode="&#x1ea6;" horiz-adv-x="923" d="M55 0l262 1366h289l276 -1366h-217l-57 297h-293l-53 -297h-207zM225 1475l129 182h215l127 -182h-170l-65 69l-64 -69h-172zM270 1871h198l95 -182h-146zM350 492h221l-113 612z" />
<glyph unicode="&#x1ea7;" horiz-adv-x="811" d="M75 256q0 68 19.5 122t68.5 101q70 66 166 108t182 79v53q0 26 -3 53t-13 47.5t-30.5 32.5t-53.5 12q-66 0 -88.5 -44t-24.5 -101h-203q13 153 101 232t241 79q60 0 114 -15.5t95 -62.5q43 -47 49.5 -105.5t6.5 -117.5v-453q0 -69 2 -138.5t20 -137.5h-196 q-11 29 -14 58.5t-3 60.5q-49 -53 -101 -93t-130 -40q-58 0 -96.5 23.5t-63.5 62.5t-35 87t-10 97zM181 1184l130 182h215l129 -182h-172l-66 69l-63 -69h-173zM198 1596h196l95 -182h-144zM276 268q0 -43 24.5 -78.5t71.5 -35.5t82 27.5t57 64.5v278q-37 -18 -78 -42.5 t-75.5 -56.5t-58 -71t-23.5 -86z" />
<glyph unicode="&#x1ea8;" horiz-adv-x="923" d="M55 0l262 1366h289l276 -1366h-217l-57 297h-293l-53 -297h-207zM225 1475l129 182h215l127 -182h-170l-65 69l-64 -69h-172zM350 492h221l-113 612zM502 1872q22 69 64.5 109.5t125.5 40.5q33 0 63 -10t51.5 -28.5t33.5 -44.5t12 -56q0 -39 -16 -67.5t-35 -59.5 q-20 -30 -33.5 -51.5t-21.5 -44.5q-5 -14 -9 -40h-120q2 19 4 33q5 25 15 49.5t22.5 49t28.5 54.5q11 17 20 37t9 40q0 21 -8.5 30t-21.5 9q-9 0 -17.5 -6t-16.5 -16.5t-13.5 -25t-13.5 -39.5z" />
<glyph unicode="&#x1ea9;" horiz-adv-x="811" d="M75 256q0 68 19.5 122t68.5 101q70 66 166 108t182 79v53q0 26 -3 53t-13 47.5t-30.5 32.5t-53.5 12q-66 0 -88.5 -44t-24.5 -101h-203q13 153 101 232t241 79q60 0 114 -15.5t95 -62.5q43 -47 49.5 -105.5t6.5 -117.5v-453q0 -69 2 -138.5t20 -137.5h-196 q-11 29 -14 58.5t-3 60.5q-49 -53 -101 -93t-130 -40q-58 0 -96.5 23.5t-63.5 62.5t-35 87t-10 97zM181 1184l130 182h215l129 -182h-172l-66 69l-63 -69h-173zM276 268q0 -43 24.5 -78.5t71.5 -35.5t82 27.5t57 64.5v278q-37 -18 -78 -42.5t-75.5 -56.5t-58 -71t-23.5 -86z M482 1561q22 69 64 109.5t125 40.5q34 0 63.5 -10t51 -28.5t33.5 -44.5t12 -56q0 -39 -15.5 -67.5t-35.5 -59.5q-19 -30 -33 -51.5t-21 -44.5q-5 -14 -9 -40h-120q1 19 4 33q4 25 14 49.5t23 49t28 54.5q12 17 21 37t9 40q0 21 -9 30t-21 9q-9 0 -17.5 -6t-16.5 -16.5 t-14 -25t-13 -39.5z" />
<glyph unicode="&#x1eaa;" horiz-adv-x="923" d="M55 0l262 1366h289l276 -1366h-217l-57 297h-293l-53 -297h-207zM225 1475l129 182h215l127 -182h-170l-65 69l-64 -69h-172zM346 1706v141q30 16 57 23.5t61 7.5q52 0 97 -19.5t96 -19.5q31 0 51.5 9t46.5 26v-144q-26 -16 -47.5 -25t-52.5 -9q-49 0 -94 20.5t-97 20.5 q-34 0 -61 -7.5t-57 -23.5zM350 492h221l-113 612z" />
<glyph unicode="&#x1eab;" horiz-adv-x="811" d="M75 256q0 68 19.5 122t68.5 101q70 66 166 108t182 79v53q0 26 -3 53t-13 47.5t-30.5 32.5t-53.5 12q-66 0 -88.5 -44t-24.5 -101h-203q13 153 101 232t241 79q60 0 114 -15.5t95 -62.5q43 -47 49.5 -105.5t6.5 -117.5v-453q0 -69 2 -138.5t20 -137.5h-196 q-11 29 -14 58.5t-3 60.5q-49 -53 -101 -93t-130 -40q-58 0 -96.5 23.5t-63.5 62.5t-35 87t-10 97zM181 1184l130 182h215l129 -182h-172l-66 69l-63 -69h-173zM276 268q0 -43 24.5 -78.5t71.5 -35.5t82 27.5t57 64.5v278q-37 -18 -78 -42.5t-75.5 -56.5t-58 -71t-23.5 -86z M282 1404v141q31 17 57.5 24t61.5 7q51 0 96 -19.5t97 -19.5q30 0 51.5 9.5t48.5 25.5v-143q-27 -15 -49.5 -25t-50.5 -10q-52 0 -97 20.5t-96 20.5q-35 0 -61.5 -7.5t-57.5 -23.5z" />
<glyph unicode="&#x1eac;" horiz-adv-x="923" d="M55 0l262 1366h289l276 -1366h-217l-57 297h-293l-53 -297h-207zM225 1475l129 182h215l127 -182h-170l-65 69l-64 -69h-172zM350 492h221l-113 612zM380 -120h178v-182h-178v182z" />
<glyph unicode="&#x1ead;" horiz-adv-x="811" d="M75 256q0 68 19.5 122t68.5 101q70 66 166 108t182 79v53q0 26 -3 53t-13 47.5t-30.5 32.5t-53.5 12q-66 0 -88.5 -44t-24.5 -101h-203q13 153 101 232t241 79q60 0 114 -15.5t95 -62.5q43 -47 49.5 -105.5t6.5 -117.5v-453q0 -69 2 -138.5t20 -137.5h-196 q-11 29 -14 58.5t-3 60.5q-49 -53 -101 -93t-130 -40q-58 0 -96.5 23.5t-63.5 62.5t-35 87t-10 97zM181 1184l130 182h215l129 -182h-172l-66 69l-63 -69h-173zM276 268q0 -43 24.5 -78.5t71.5 -35.5t82 27.5t57 64.5v278q-37 -18 -78 -42.5t-75.5 -56.5t-58 -71t-23.5 -86z M343 -120h178v-182h-178v182z" />
<glyph unicode="&#x1eae;" horiz-adv-x="923" d="M55 0l262 1366h289l276 -1366h-217l-57 297h-293l-53 -297h-207zM225 1604h172q67 -78 129 0h170q-73 -153 -232.5 -159t-238.5 159zM350 492h221l-113 612zM419 1633l94 182h199l-148 -182h-145z" />
<glyph unicode="&#x1eaf;" horiz-adv-x="811" d="M75 256q0 68 19.5 122t68.5 101q70 66 166 108t182 79v53q0 26 -3 53t-13 47.5t-30.5 32.5t-53.5 12q-66 0 -88.5 -44t-24.5 -101h-203q13 153 101 232t241 79q60 0 114 -15.5t95 -62.5q43 -47 49.5 -105.5t6.5 -117.5v-453q0 -69 2 -138.5t20 -137.5h-196 q-11 29 -14 58.5t-3 60.5q-49 -53 -101 -93t-130 -40q-58 0 -96.5 23.5t-63.5 62.5t-35 87t-10 97zM175 1265h172q66 -78 129 0h170q-73 -153 -232.5 -159t-238.5 159zM276 268q0 -43 24.5 -78.5t71.5 -35.5t82 27.5t57 64.5v278q-37 -18 -78 -42.5t-75.5 -56.5t-58 -71 t-23.5 -86zM359 1314l94 182h197l-148 -182h-143z" />
<glyph unicode="&#x1eb0;" horiz-adv-x="923" d="M55 0l262 1366h289l276 -1366h-217l-57 297h-293l-53 -297h-207zM225 1604h172q67 -78 129 0h170q-73 -153 -232.5 -159t-238.5 159zM259 1819h198l95 -182h-146zM350 492h221l-113 612z" />
<glyph unicode="&#x1eb1;" horiz-adv-x="811" d="M75 256q0 68 19.5 122t68.5 101q70 66 166 108t182 79v53q0 26 -3 53t-13 47.5t-30.5 32.5t-53.5 12q-66 0 -88.5 -44t-24.5 -101h-203q13 153 101 232t241 79q60 0 114 -15.5t95 -62.5q43 -47 49.5 -105.5t6.5 -117.5v-453q0 -69 2 -138.5t20 -137.5h-196 q-11 29 -14 58.5t-3 60.5q-49 -53 -101 -93t-130 -40q-58 0 -96.5 23.5t-63.5 62.5t-35 87t-10 97zM175 1265h172q66 -78 129 0h170q-73 -153 -232.5 -159t-238.5 159zM198 1495h196l95 -182h-144zM276 268q0 -43 24.5 -78.5t71.5 -35.5t82 27.5t57 64.5v278 q-37 -18 -78 -42.5t-75.5 -56.5t-58 -71t-23.5 -86z" />
<glyph unicode="&#x1eb2;" horiz-adv-x="923" d="M55 0l262 1366h289l276 -1366h-217l-57 297h-293l-53 -297h-207zM225 1604h172q67 -78 129 0h170q-73 -153 -232.5 -159t-238.5 159zM287 1888q22 69 64.5 109.5t125.5 40.5q33 0 63 -10t51.5 -28.5t33.5 -44.5t12 -56q0 -39 -16 -67.5t-35 -59.5q-20 -30 -33.5 -51.5 t-21.5 -44.5q-5 -14 -9 -40h-120q2 19 4 33q5 25 15 49.5t22.5 49t28.5 54.5q11 17 20 37t9 40q0 21 -8.5 30t-21.5 9q-9 0 -17.5 -6t-16.5 -16.5t-13.5 -25t-13.5 -39.5zM350 492h221l-113 612z" />
<glyph unicode="&#x1eb3;" horiz-adv-x="811" d="M75 256q0 68 19.5 122t68.5 101q70 66 166 108t182 79v53q0 26 -3 53t-13 47.5t-30.5 32.5t-53.5 12q-66 0 -88.5 -44t-24.5 -101h-203q13 153 101 232t241 79q60 0 114 -15.5t95 -62.5q43 -47 49.5 -105.5t6.5 -117.5v-453q0 -69 2 -138.5t20 -137.5h-196 q-11 29 -14 58.5t-3 60.5q-49 -53 -101 -93t-130 -40q-58 0 -96.5 23.5t-63.5 62.5t-35 87t-10 97zM175 1265h172q66 -78 129 0h170q-73 -153 -232.5 -159t-238.5 159zM251 1561q22 69 64 109.5t125 40.5q34 0 63.5 -10t51 -28.5t33.5 -44.5t12 -56q0 -39 -15.5 -67.5 t-35.5 -59.5q-19 -30 -33 -51.5t-21 -44.5q-5 -14 -9 -40h-120q1 19 4 33q4 25 14 49.5t23 49t28 54.5q12 17 21 37t9 40q0 21 -9 30t-21 9q-9 0 -17.5 -6t-16.5 -16.5t-14 -25t-13 -39.5zM276 268q0 -43 24.5 -78.5t71.5 -35.5t82 27.5t57 64.5v278q-37 -18 -78 -42.5 t-75.5 -56.5t-58 -71t-23.5 -86z" />
<glyph unicode="&#x1eb4;" horiz-adv-x="923" d="M55 0l262 1366h289l276 -1366h-217l-57 297h-293l-53 -297h-207zM225 1604h172q67 -78 129 0h170q-73 -153 -232.5 -159t-238.5 159zM329 1645v141q30 16 57 23.5t61 7.5q52 0 97 -19.5t96 -19.5q31 0 51.5 9t46.5 26v-144q-26 -16 -47.5 -25t-52.5 -9q-49 0 -94 20.5 t-97 20.5q-34 0 -61 -7.5t-57 -23.5zM350 492h221l-113 612z" />
<glyph unicode="&#x1eb5;" horiz-adv-x="811" d="M75 256q0 68 19.5 122t68.5 101q70 66 166 108t182 79v53q0 26 -3 53t-13 47.5t-30.5 32.5t-53.5 12q-66 0 -88.5 -44t-24.5 -101h-203q13 153 101 232t241 79q60 0 114 -15.5t95 -62.5q43 -47 49.5 -105.5t6.5 -117.5v-453q0 -69 2 -138.5t20 -137.5h-196 q-11 29 -14 58.5t-3 60.5q-49 -53 -101 -93t-130 -40q-58 0 -96.5 23.5t-63.5 62.5t-35 87t-10 97zM175 1265h172q66 -78 129 0h170q-73 -153 -232.5 -159t-238.5 159zM276 268q0 -43 24.5 -78.5t71.5 -35.5t82 27.5t57 64.5v278q-37 -18 -78 -42.5t-75.5 -56.5t-58 -71 t-23.5 -86zM282 1313v141q31 17 57.5 24t61.5 7q51 0 96 -19.5t97 -19.5q30 0 51.5 9.5t48.5 25.5v-143q-27 -15 -49.5 -25t-50.5 -10q-52 0 -97 20.5t-96 20.5q-35 0 -61.5 -7.5t-57.5 -23.5z" />
<glyph unicode="&#x1eb6;" horiz-adv-x="923" d="M55 0l262 1366h289l276 -1366h-217l-57 297h-293l-53 -297h-207zM225 1604h172q67 -78 129 0h170q-73 -153 -232.5 -159t-238.5 159zM350 492h221l-113 612zM380 -120h178v-182h-178v182z" />
<glyph unicode="&#x1eb7;" horiz-adv-x="811" d="M75 256q0 68 19.5 122t68.5 101q70 66 166 108t182 79v53q0 26 -3 53t-13 47.5t-30.5 32.5t-53.5 12q-66 0 -88.5 -44t-24.5 -101h-203q13 153 101 232t241 79q60 0 114 -15.5t95 -62.5q43 -47 49.5 -105.5t6.5 -117.5v-453q0 -69 2 -138.5t20 -137.5h-196 q-11 29 -14 58.5t-3 60.5q-49 -53 -101 -93t-130 -40q-58 0 -96.5 23.5t-63.5 62.5t-35 87t-10 97zM175 1265h172q66 -78 129 0h170q-73 -153 -232.5 -159t-238.5 159zM276 268q0 -43 24.5 -78.5t71.5 -35.5t82 27.5t57 64.5v278q-37 -18 -78 -42.5t-75.5 -56.5t-58 -71 t-23.5 -86zM343 -120h178v-182h-178v182z" />
<glyph unicode="&#x1eb8;" horiz-adv-x="763" d="M104 0v1366h618v-195h-407v-360h301v-195h-301v-421h407v-195h-618zM324 -120h178v-182h-178v182z" />
<glyph unicode="&#x1eb9;" horiz-adv-x="796" d="M81 360v306q0 79 11.5 154t70.5 134q47 45 107.5 64.5t123.5 19.5q70 0 131.5 -21.5t108.5 -72.5q29 -31 44 -66.5t23.5 -73.5t9.5 -79t1 -80v-168h-441v-92q0 -37 1.5 -78t13.5 -74.5t38.5 -56t78.5 -22.5q43 0 67.5 18t36.5 47t14 63.5t2 69.5h191v-37 q0 -67 -11.5 -128.5t-58.5 -114.5q-47 -54 -111.5 -73t-132.5 -19q-96 0 -157.5 27.5t-97 77.5t-50 119.5t-14.5 155.5zM271 645h250v55q0 35 -4 66t-18.5 54.5t-39 36.5t-65.5 13q-39 0 -63.5 -14t-37.5 -37.5t-17.5 -54.5t-4.5 -64v-55zM307 -120h178v-182h-178v182z" />
<glyph unicode="&#x1eba;" horiz-adv-x="763" d="M104 0v1366h618v-195h-407v-360h301v-195h-301v-421h407v-195h-618zM231 1672q22 69 64.5 109.5t125.5 40.5q33 0 63 -10t51.5 -28.5t33.5 -44.5t12 -56q0 -39 -16 -67.5t-35 -59.5q-20 -30 -33.5 -51.5t-21.5 -44.5q-5 -14 -9 -40h-120q2 19 4 33q5 25 14.5 49.5 t22.5 49t29 54.5q11 17 20 37t9 40q0 21 -8.5 30t-21.5 9q-9 0 -17.5 -6t-16.5 -16.5t-14 -25t-13 -39.5z" />
<glyph unicode="&#x1ebb;" horiz-adv-x="796" d="M81 360v306q0 79 11.5 154t70.5 134q47 45 107.5 64.5t123.5 19.5q70 0 131.5 -21.5t108.5 -72.5q29 -31 44 -66.5t23.5 -73.5t9.5 -79t1 -80v-168h-441v-92q0 -37 1.5 -78t13.5 -74.5t38.5 -56t78.5 -22.5q43 0 67.5 18t36.5 47t14 63.5t2 69.5h191v-37 q0 -67 -11.5 -128.5t-58.5 -114.5q-47 -54 -111.5 -73t-132.5 -19q-96 0 -157.5 27.5t-97 77.5t-50 119.5t-14.5 155.5zM220 1350q23 69 65 109.5t125 40.5q33 0 63 -10t51.5 -28.5t33.5 -44.5t12 -56q0 -39 -15.5 -67.5t-35.5 -59.5q-20 -30 -33.5 -51.5t-20.5 -44.5 q-5 -14 -9 -40h-120q1 19 4 33q4 25 14 49.5t22.5 49t28.5 54.5q12 17 20.5 37t8.5 40q0 21 -8.5 30t-21.5 9q-8 0 -16.5 -6t-16.5 -16.5t-14 -25t-13 -39.5zM271 645h250v55q0 35 -4 66t-18.5 54.5t-39 36.5t-65.5 13q-39 0 -63.5 -14t-37.5 -37.5t-17.5 -54.5t-4.5 -64 v-55z" />
<glyph unicode="&#x1ebc;" horiz-adv-x="763" d="M104 0v1366h618v-195h-407v-360h301v-195h-301v-421h407v-195h-618zM216 1485v141q30 16 57 23.5t61 7.5q52 0 97 -19.5t96 -19.5q31 0 51.5 9t46.5 26v-144q-26 -16 -47.5 -25t-52.5 -9q-49 0 -94 20.5t-97 20.5q-34 0 -61 -7.5t-57 -23.5z" />
<glyph unicode="&#x1ebd;" horiz-adv-x="796" d="M81 360v306q0 79 11.5 154t70.5 134q47 45 107.5 64.5t123.5 19.5q70 0 131.5 -21.5t108.5 -72.5q29 -31 44 -66.5t23.5 -73.5t9.5 -79t1 -80v-168h-441v-92q0 -37 1.5 -78t13.5 -74.5t38.5 -56t78.5 -22.5q43 0 67.5 18t36.5 47t14 63.5t2 69.5h191v-37 q0 -67 -11.5 -128.5t-58.5 -114.5q-47 -54 -111.5 -73t-132.5 -19q-96 0 -157.5 27.5t-97 77.5t-50 119.5t-14.5 155.5zM202 1153v141q31 17 57.5 24t61.5 7q51 0 96 -19.5t96 -19.5q31 0 52.5 9.5t48.5 25.5v-143q-27 -15 -49.5 -25t-51.5 -10q-51 0 -96 20.5t-96 20.5 q-35 0 -61.5 -7.5t-57.5 -23.5zM271 645h250v55q0 35 -4 66t-18.5 54.5t-39 36.5t-65.5 13q-39 0 -63.5 -14t-37.5 -37.5t-17.5 -54.5t-4.5 -64v-55z" />
<glyph unicode="&#x1ebe;" horiz-adv-x="763" d="M104 0v1366h618v-195h-407v-360h301v-195h-301v-421h407v-195h-618zM174 1475l129 182h213l129 -182h-172l-64 69l-63 -69h-172zM361 1699l94 182h198l-147 -182h-145z" />
<glyph unicode="&#x1ebf;" horiz-adv-x="796" d="M81 360v306q0 79 11.5 154t70.5 134q47 45 107.5 64.5t123.5 19.5q70 0 131.5 -21.5t108.5 -72.5q29 -31 44 -66.5t23.5 -73.5t9.5 -79t1 -80v-168h-441v-92q0 -37 1.5 -78t13.5 -74.5t38.5 -56t78.5 -22.5q43 0 67.5 18t36.5 47t14 63.5t2 69.5h191v-37 q0 -67 -11.5 -128.5t-58.5 -114.5q-47 -54 -111.5 -73t-132.5 -19q-96 0 -157.5 27.5t-97 77.5t-50 119.5t-14.5 155.5zM163 1184l129 182h213l129 -182h-172l-64 69l-65 -69h-170zM271 645h250v55q0 35 -4 66t-18.5 54.5t-39 36.5t-65.5 13q-39 0 -63.5 -14t-37.5 -37.5 t-17.5 -54.5t-4.5 -64v-55zM339 1414l94 182h197l-148 -182h-143z" />
<glyph unicode="&#x1ec0;" horiz-adv-x="763" d="M104 0v1366h618v-195h-407v-360h301v-195h-301v-421h407v-195h-618zM174 1475l129 182h213l129 -182h-172l-64 69l-63 -69h-172zM219 1871h198l94 -182h-145z" />
<glyph unicode="&#x1ec1;" horiz-adv-x="796" d="M81 360v306q0 79 11.5 154t70.5 134q47 45 107.5 64.5t123.5 19.5q70 0 131.5 -21.5t108.5 -72.5q29 -31 44 -66.5t23.5 -73.5t9.5 -79t1 -80v-168h-441v-92q0 -37 1.5 -78t13.5 -74.5t38.5 -56t78.5 -22.5q43 0 67.5 18t36.5 47t14 63.5t2 69.5h191v-37 q0 -67 -11.5 -128.5t-58.5 -114.5q-47 -54 -111.5 -73t-132.5 -19q-96 0 -157.5 27.5t-97 77.5t-50 119.5t-14.5 155.5zM163 1184l129 182h213l129 -182h-172l-64 69l-65 -69h-170zM198 1596h196l95 -182h-144zM271 645h250v55q0 35 -4 66t-18.5 54.5t-39 36.5t-65.5 13 q-39 0 -63.5 -14t-37.5 -37.5t-17.5 -54.5t-4.5 -64v-55z" />
<glyph unicode="&#x1ec2;" horiz-adv-x="763" d="M104 0v1366h618v-195h-407v-360h301v-195h-301v-421h407v-195h-618zM174 1475l129 182h213l129 -182h-172l-64 69l-63 -69h-172zM442 1883q22 69 64.5 109.5t125.5 40.5q33 0 63 -10t51.5 -28.5t33.5 -44.5t12 -56q0 -39 -16 -67.5t-35 -59.5q-20 -30 -33.5 -51.5 t-21.5 -44.5q-5 -14 -9 -40h-120q2 19 4 33q5 25 14.5 49.5t22.5 49t29 54.5q11 17 20 37t9 40q0 21 -8.5 30t-21.5 9q-9 0 -17.5 -6t-16.5 -16.5t-14 -25t-13 -39.5z" />
<glyph unicode="&#x1ec3;" horiz-adv-x="796" d="M81 360v306q0 79 11.5 154t70.5 134q47 45 107.5 64.5t123.5 19.5q70 0 131.5 -21.5t108.5 -72.5q29 -31 44 -66.5t23.5 -73.5t9.5 -79t1 -80v-168h-441v-92q0 -37 1.5 -78t13.5 -74.5t38.5 -56t78.5 -22.5q43 0 67.5 18t36.5 47t14 63.5t2 69.5h191v-37 q0 -67 -11.5 -128.5t-58.5 -114.5q-47 -54 -111.5 -73t-132.5 -19q-96 0 -157.5 27.5t-97 77.5t-50 119.5t-14.5 155.5zM163 1184l129 182h213l129 -182h-172l-64 69l-65 -69h-170zM271 645h250v55q0 35 -4 66t-18.5 54.5t-39 36.5t-65.5 13q-39 0 -63.5 -14t-37.5 -37.5 t-17.5 -54.5t-4.5 -64v-55zM461 1561q23 69 65 109.5t125 40.5q33 0 63 -10t51.5 -28.5t33.5 -44.5t12 -56q0 -39 -15.5 -67.5t-35.5 -59.5q-20 -30 -33.5 -51.5t-20.5 -44.5q-5 -14 -9 -40h-120q1 19 4 33q4 25 14 49.5t22.5 49t28.5 54.5q12 17 20.5 37t8.5 40 q0 21 -8.5 30t-21.5 9q-8 0 -16.5 -6t-16.5 -16.5t-14 -25t-13 -39.5z" />
<glyph unicode="&#x1ec4;" horiz-adv-x="763" d="M104 0v1366h618v-195h-407v-360h301v-195h-301v-421h407v-195h-618zM174 1475l129 182h213l129 -182h-172l-64 69l-63 -69h-172zM286 1696v141q30 16 57 23.5t61 7.5q52 0 97 -19.5t96 -19.5q31 0 51.5 9t46.5 26v-144q-26 -16 -47.5 -25t-52.5 -9q-49 0 -94 20.5 t-97 20.5q-34 0 -61 -7.5t-57 -23.5z" />
<glyph unicode="&#x1ec5;" horiz-adv-x="796" d="M81 360v306q0 79 11.5 154t70.5 134q47 45 107.5 64.5t123.5 19.5q70 0 131.5 -21.5t108.5 -72.5q29 -31 44 -66.5t23.5 -73.5t9.5 -79t1 -80v-168h-441v-92q0 -37 1.5 -78t13.5 -74.5t38.5 -56t78.5 -22.5q43 0 67.5 18t36.5 47t14 63.5t2 69.5h191v-37 q0 -67 -11.5 -128.5t-58.5 -114.5q-47 -54 -111.5 -73t-132.5 -19q-96 0 -157.5 27.5t-97 77.5t-50 119.5t-14.5 155.5zM163 1184l129 182h213l129 -182h-172l-64 69l-65 -69h-170zM252 1404v141q31 17 57.5 24t61.5 7q51 0 96 -19.5t96 -19.5q31 0 52.5 9.5t48.5 25.5v-143 q-27 -15 -49.5 -25t-51.5 -10q-51 0 -96 20.5t-96 20.5q-35 0 -61.5 -7.5t-57.5 -23.5zM271 645h250v55q0 35 -4 66t-18.5 54.5t-39 36.5t-65.5 13q-39 0 -63.5 -14t-37.5 -37.5t-17.5 -54.5t-4.5 -64v-55z" />
<glyph unicode="&#x1ec6;" horiz-adv-x="763" d="M104 0v1366h618v-195h-407v-360h301v-195h-301v-421h407v-195h-618zM174 1475l129 182h213l129 -182h-172l-64 69l-63 -69h-172zM324 -120h178v-182h-178v182z" />
<glyph unicode="&#x1ec7;" horiz-adv-x="796" d="M81 360v306q0 79 11.5 154t70.5 134q47 45 107.5 64.5t123.5 19.5q70 0 131.5 -21.5t108.5 -72.5q29 -31 44 -66.5t23.5 -73.5t9.5 -79t1 -80v-168h-441v-92q0 -37 1.5 -78t13.5 -74.5t38.5 -56t78.5 -22.5q43 0 67.5 18t36.5 47t14 63.5t2 69.5h191v-37 q0 -67 -11.5 -128.5t-58.5 -114.5q-47 -54 -111.5 -73t-132.5 -19q-96 0 -157.5 27.5t-97 77.5t-50 119.5t-14.5 155.5zM163 1184l129 182h213l129 -182h-172l-64 69l-65 -69h-170zM271 645h250v55q0 35 -4 66t-18.5 54.5t-39 36.5t-65.5 13q-39 0 -63.5 -14t-37.5 -37.5 t-17.5 -54.5t-4.5 -64v-55zM307 -120h178v-182h-178v182z" />
<glyph unicode="&#x1ec8;" horiz-adv-x="419" d="M20 1672q22 69 64.5 109.5t125.5 40.5q33 0 63 -10t51.5 -28.5t33.5 -44.5t12 -56q0 -39 -16 -67.5t-35 -59.5q-20 -30 -33.5 -51.5t-21.5 -44.5q-5 -14 -9 -40h-120q2 19 4 33q5 25 14.5 49.5t22.5 49t29 54.5q11 17 20 37t9 40q0 21 -8.5 30t-21.5 9q-9 0 -17.5 -6 t-16.5 -16.5t-13.5 -25t-13.5 -39.5zM104 0v1366h211v-1366h-211z" />
<glyph unicode="&#x1ec9;" horiz-adv-x="368" d="M10 1350q22 69 64.5 109.5t125.5 40.5q33 0 63 -10t51.5 -28.5t33.5 -44.5t12 -56q0 -39 -16 -67.5t-35 -59.5q-20 -30 -33.5 -51.5t-21.5 -44.5q-5 -14 -9 -40h-120q2 19 4 33q5 25 14.5 49.5t22.5 49t29 54.5q11 17 20 37t9 40q0 21 -8.5 30t-21.5 9q-9 0 -17.5 -6 t-16.5 -16.5t-13.5 -25t-13.5 -39.5zM88 0v1018h192v-1018h-192z" />
<glyph unicode="&#x1eca;" horiz-adv-x="419" d="M104 0v1366h211v-1366h-211zM123 -120h178v-182h-178v182z" />
<glyph unicode="&#x1ecb;" horiz-adv-x="368" d="M88 0v1018h193v-1018h-193zM88 1167v199h193v-199h-193zM98 -120h178v-182h-178v182z" />
<glyph unicode="&#x1ecc;" horiz-adv-x="925" d="M90 434v498q0 86 13.5 168t64.5 153q51 72 130 102.5t165 30.5q88 0 164.5 -30.5t130.5 -102.5q53 -69 65 -153t12 -168v-498q0 -88 -12 -169t-65 -154q-52 -72 -130.5 -101.5t-164.5 -29.5t-164 29.5t-131 101.5q-53 69 -65.5 154t-12.5 169zM301 438q0 -45 3 -91 t18.5 -84t48 -61.5t92.5 -23.5q59 0 92 23.5t48 61.5t18.5 84t3.5 91v490q0 47 -2.5 95t-24.5 91q-21 37 -57.5 55.5t-77.5 18.5q-60 0 -92.5 -23.5t-48 -61.5t-18.5 -84t-3 -91v-490zM374 -120h178v-182h-178v182z" />
<glyph unicode="&#x1ecd;" d="M81 350v316q0 39 1 77.5t9 75.5t24.5 71t45.5 64q47 47 107.5 65.5t123.5 18.5q66 0 125.5 -18.5t106.5 -65.5q30 -28 46.5 -63t24 -72t9.5 -75.5t2 -77.5v-316q0 -80 -11.5 -154.5t-70.5 -134.5q-47 -47 -107.5 -64t-124.5 -17q-65 0 -124.5 18t-106.5 63 q-60 56 -70 133.5t-10 155.5zM271 340q0 -33 4.5 -65.5t16.5 -59.5t35.5 -44t64.5 -17t65.5 16t37 43t16.5 60.5t4 66.5v338q0 33 -4 66.5t-16.5 60t-37 43t-65.5 16.5t-64.5 -17.5t-35.5 -44t-16.5 -59t-4.5 -65.5v-338zM307 -120h178v-182h-178v182z" />
<glyph unicode="&#x1ece;" horiz-adv-x="925" d="M90 434v498q0 86 13.5 168t64.5 153q51 72 130 102.5t165 30.5q88 0 164.5 -30.5t130.5 -102.5q53 -69 65 -153t12 -168v-498q0 -88 -12 -169t-65 -154q-52 -72 -130.5 -101.5t-164.5 -29.5t-164 29.5t-131 101.5q-53 69 -65.5 154t-12.5 169zM281 1702q23 69 65 109.5 t125 40.5q33 0 63 -10t51.5 -28.5t33.5 -44.5t12 -56q0 -39 -15.5 -67.5t-35.5 -59.5q-20 -30 -33.5 -51.5t-21.5 -44.5q-4 -14 -8 -40h-121q2 19 5 33q4 25 14 49.5t22.5 49t28.5 54.5q12 17 20.5 37t8.5 40q0 21 -8.5 30t-21.5 9q-9 0 -17 -6t-16.5 -16.5t-14 -25 t-12.5 -39.5zM301 438q0 -45 3 -91t18.5 -84t48 -61.5t92.5 -23.5q59 0 92 23.5t48 61.5t18.5 84t3.5 91v490q0 47 -2.5 95t-24.5 91q-21 37 -57.5 55.5t-77.5 18.5q-60 0 -92.5 -23.5t-48 -61.5t-18.5 -84t-3 -91v-490z" />
<glyph unicode="&#x1ecf;" d="M81 350v316q0 39 1 77.5t9 75.5t24.5 71t45.5 64q47 47 107.5 65.5t123.5 18.5q66 0 125.5 -18.5t106.5 -65.5q30 -28 46.5 -63t24 -72t9.5 -75.5t2 -77.5v-316q0 -80 -11.5 -154.5t-70.5 -134.5q-47 -47 -107.5 -64t-124.5 -17q-65 0 -124.5 18t-106.5 63 q-60 56 -70 133.5t-10 155.5zM220 1350q23 69 65 109.5t125 40.5q33 0 63 -10t51.5 -28.5t33.5 -44.5t12 -56q0 -39 -15.5 -67.5t-35.5 -59.5q-20 -30 -33.5 -51.5t-20.5 -44.5q-5 -14 -9 -40h-120q1 19 4 33q4 25 14 49.5t22.5 49t28.5 54.5q12 17 20.5 37t8.5 40 q0 21 -8.5 30t-21.5 9q-8 0 -16.5 -6t-16.5 -16.5t-14 -25t-13 -39.5zM271 340q0 -33 4.5 -65.5t16.5 -59.5t35.5 -44t64.5 -17t65.5 16t37 43t16.5 60.5t4 66.5v338q0 33 -4 66.5t-16.5 60t-37 43t-65.5 16.5t-64.5 -17.5t-35.5 -44t-16.5 -59t-4.5 -65.5v-338z" />
<glyph unicode="&#x1ed0;" horiz-adv-x="925" d="M90 434v498q0 86 13.5 168t64.5 153q51 72 130 102.5t165 30.5q88 0 164.5 -30.5t130.5 -102.5q53 -69 65 -153t12 -168v-498q0 -88 -12 -169t-65 -154q-52 -72 -130.5 -101.5t-164.5 -29.5t-164 29.5t-131 101.5q-53 69 -65.5 154t-12.5 169zM227 1475l129 182h213 l129 -182h-172l-63 69l-64 -69h-172zM301 438q0 -45 3 -91t18.5 -84t48 -61.5t92.5 -23.5q59 0 92 23.5t48 61.5t18.5 84t3.5 91v490q0 47 -2.5 95t-24.5 91q-21 37 -57.5 55.5t-77.5 18.5q-60 0 -92.5 -23.5t-48 -61.5t-18.5 -84t-3 -91v-490zM391 1699l94 182h199 l-148 -182h-145z" />
<glyph unicode="&#x1ed1;" d="M81 350v316q0 39 1 77.5t9 75.5t24.5 71t45.5 64q47 47 107.5 65.5t123.5 18.5q66 0 125.5 -18.5t106.5 -65.5q30 -28 46.5 -63t24 -72t9.5 -75.5t2 -77.5v-316q0 -80 -11.5 -154.5t-70.5 -134.5q-47 -47 -107.5 -64t-124.5 -17q-65 0 -124.5 18t-106.5 63 q-60 56 -70 133.5t-10 155.5zM157 1184l129 182h215l129 -182h-172l-66 69l-63 -69h-172zM271 340q0 -33 4.5 -65.5t16.5 -59.5t35.5 -44t64.5 -17t65.5 16t37 43t16.5 60.5t4 66.5v338q0 33 -4 66.5t-16.5 60t-37 43t-65.5 16.5t-64.5 -17.5t-35.5 -44t-16.5 -59 t-4.5 -65.5v-338zM329 1414l94 182h197l-148 -182h-143z" />
<glyph unicode="&#x1ed2;" horiz-adv-x="925" d="M90 434v498q0 86 13.5 168t64.5 153q51 72 130 102.5t165 30.5q88 0 164.5 -30.5t130.5 -102.5q53 -69 65 -153t12 -168v-498q0 -88 -12 -169t-65 -154q-52 -72 -130.5 -101.5t-164.5 -29.5t-164 29.5t-131 101.5q-53 69 -65.5 154t-12.5 169zM227 1475l129 182h213 l129 -182h-172l-63 69l-64 -69h-172zM250 1871h198l95 -182h-146zM301 438q0 -45 3 -91t18.5 -84t48 -61.5t92.5 -23.5q59 0 92 23.5t48 61.5t18.5 84t3.5 91v490q0 47 -2.5 95t-24.5 91q-21 37 -57.5 55.5t-77.5 18.5q-60 0 -92.5 -23.5t-48 -61.5t-18.5 -84t-3 -91v-490z " />
<glyph unicode="&#x1ed3;" d="M81 350v316q0 39 1 77.5t9 75.5t24.5 71t45.5 64q47 47 107.5 65.5t123.5 18.5q66 0 125.5 -18.5t106.5 -65.5q30 -28 46.5 -63t24 -72t9.5 -75.5t2 -77.5v-316q0 -80 -11.5 -154.5t-70.5 -134.5q-47 -47 -107.5 -64t-124.5 -17q-65 0 -124.5 18t-106.5 63 q-60 56 -70 133.5t-10 155.5zM157 1184l129 182h215l129 -182h-172l-66 69l-63 -69h-172zM198 1596h196l95 -182h-144zM271 340q0 -33 4.5 -65.5t16.5 -59.5t35.5 -44t64.5 -17t65.5 16t37 43t16.5 60.5t4 66.5v338q0 33 -4 66.5t-16.5 60t-37 43t-65.5 16.5t-64.5 -17.5 t-35.5 -44t-16.5 -59t-4.5 -65.5v-338z" />
<glyph unicode="&#x1ed4;" horiz-adv-x="925" d="M90 434v498q0 86 13.5 168t64.5 153q51 72 130 102.5t165 30.5q88 0 164.5 -30.5t130.5 -102.5q53 -69 65 -153t12 -168v-498q0 -88 -12 -169t-65 -154q-52 -72 -130.5 -101.5t-164.5 -29.5t-164 29.5t-131 101.5q-53 69 -65.5 154t-12.5 169zM227 1475l129 182h213 l129 -182h-172l-63 69l-64 -69h-172zM301 438q0 -45 3 -91t18.5 -84t48 -61.5t92.5 -23.5q59 0 92 23.5t48 61.5t18.5 84t3.5 91v490q0 47 -2.5 95t-24.5 91q-21 37 -57.5 55.5t-77.5 18.5q-60 0 -92.5 -23.5t-48 -61.5t-18.5 -84t-3 -91v-490zM532 1873q23 69 65 109.5 t125 40.5q33 0 63 -10t51.5 -28.5t33.5 -44.5t12 -56q0 -39 -15.5 -67.5t-35.5 -59.5q-20 -30 -33.5 -51.5t-21.5 -44.5q-4 -14 -8 -40h-121q2 19 5 33q4 25 14 49.5t22.5 49t28.5 54.5q12 17 20.5 37t8.5 40q0 21 -8.5 30t-21.5 9q-9 0 -17 -6t-16.5 -16.5t-14 -25 t-12.5 -39.5z" />
<glyph unicode="&#x1ed5;" d="M81 350v316q0 39 1 77.5t9 75.5t24.5 71t45.5 64q47 47 107.5 65.5t123.5 18.5q66 0 125.5 -18.5t106.5 -65.5q30 -28 46.5 -63t24 -72t9.5 -75.5t2 -77.5v-316q0 -80 -11.5 -154.5t-70.5 -134.5q-47 -47 -107.5 -64t-124.5 -17q-65 0 -124.5 18t-106.5 63 q-60 56 -70 133.5t-10 155.5zM157 1184l129 182h215l129 -182h-172l-66 69l-63 -69h-172zM271 340q0 -33 4.5 -65.5t16.5 -59.5t35.5 -44t64.5 -17t65.5 16t37 43t16.5 60.5t4 66.5v338q0 33 -4 66.5t-16.5 60t-37 43t-65.5 16.5t-64.5 -17.5t-35.5 -44t-16.5 -59 t-4.5 -65.5v-338zM451 1561q23 69 65 109.5t125 40.5q33 0 63 -10t51.5 -28.5t33.5 -44.5t12 -56q0 -39 -15.5 -67.5t-35.5 -59.5q-20 -30 -33.5 -51.5t-20.5 -44.5q-5 -14 -9 -40h-120q1 19 4 33q4 25 14 49.5t22.5 49t28.5 54.5q12 17 20.5 37t8.5 40q0 21 -8.5 30 t-21.5 9q-8 0 -16.5 -6t-16.5 -16.5t-14 -25t-13 -39.5z" />
<glyph unicode="&#x1ed6;" horiz-adv-x="925" d="M90 434v498q0 86 13.5 168t64.5 153q51 72 130 102.5t165 30.5q88 0 164.5 -30.5t130.5 -102.5q53 -69 65 -153t12 -168v-498q0 -88 -12 -169t-65 -154q-52 -72 -130.5 -101.5t-164.5 -29.5t-164 29.5t-131 101.5q-53 69 -65.5 154t-12.5 169zM227 1475l129 182h213 l129 -182h-172l-63 69l-64 -69h-172zM301 438q0 -45 3 -91t18.5 -84t48 -61.5t92.5 -23.5q59 0 92 23.5t48 61.5t18.5 84t3.5 91v490q0 47 -2.5 95t-24.5 91q-21 37 -57.5 55.5t-77.5 18.5q-60 0 -92.5 -23.5t-48 -61.5t-18.5 -84t-3 -91v-490zM326 1696v141 q31 16 57.5 23.5t61.5 7.5q51 0 96 -19.5t96 -19.5q31 0 51.5 9t46.5 26v-144q-26 -16 -47.5 -25t-52.5 -9q-49 0 -94 20.5t-96 20.5q-35 0 -61.5 -7.5t-57.5 -23.5z" />
<glyph unicode="&#x1ed7;" d="M81 350v316q0 39 1 77.5t9 75.5t24.5 71t45.5 64q47 47 107.5 65.5t123.5 18.5q66 0 125.5 -18.5t106.5 -65.5q30 -28 46.5 -63t24 -72t9.5 -75.5t2 -77.5v-316q0 -80 -11.5 -154.5t-70.5 -134.5q-47 -47 -107.5 -64t-124.5 -17q-65 0 -124.5 18t-106.5 63 q-60 56 -70 133.5t-10 155.5zM157 1184l129 182h215l129 -182h-172l-66 69l-63 -69h-172zM252 1404v141q31 17 57.5 24t61.5 7q51 0 96 -19.5t96 -19.5q31 0 52.5 9.5t48.5 25.5v-143q-27 -15 -49.5 -25t-51.5 -10q-51 0 -96 20.5t-96 20.5q-35 0 -61.5 -7.5t-57.5 -23.5z M271 340q0 -33 4.5 -65.5t16.5 -59.5t35.5 -44t64.5 -17t65.5 16t37 43t16.5 60.5t4 66.5v338q0 33 -4 66.5t-16.5 60t-37 43t-65.5 16.5t-64.5 -17.5t-35.5 -44t-16.5 -59t-4.5 -65.5v-338z" />
<glyph unicode="&#x1ed8;" horiz-adv-x="925" d="M90 434v498q0 86 13.5 168t64.5 153q51 72 130 102.5t165 30.5q88 0 164.5 -30.5t130.5 -102.5q53 -69 65 -153t12 -168v-498q0 -88 -12 -169t-65 -154q-52 -72 -130.5 -101.5t-164.5 -29.5t-164 29.5t-131 101.5q-53 69 -65.5 154t-12.5 169zM227 1475l129 182h213 l129 -182h-172l-63 69l-64 -69h-172zM301 438q0 -45 3 -91t18.5 -84t48 -61.5t92.5 -23.5q59 0 92 23.5t48 61.5t18.5 84t3.5 91v490q0 47 -2.5 95t-24.5 91q-21 37 -57.5 55.5t-77.5 18.5q-60 0 -92.5 -23.5t-48 -61.5t-18.5 -84t-3 -91v-490zM374 -120h178v-182h-178v182z " />
<glyph unicode="&#x1ed9;" d="M81 350v316q0 39 1 77.5t9 75.5t24.5 71t45.5 64q47 47 107.5 65.5t123.5 18.5q66 0 125.5 -18.5t106.5 -65.5q30 -28 46.5 -63t24 -72t9.5 -75.5t2 -77.5v-316q0 -80 -11.5 -154.5t-70.5 -134.5q-47 -47 -107.5 -64t-124.5 -17q-65 0 -124.5 18t-106.5 63 q-60 56 -70 133.5t-10 155.5zM157 1184l129 182h215l129 -182h-172l-66 69l-63 -69h-172zM271 340q0 -33 4.5 -65.5t16.5 -59.5t35.5 -44t64.5 -17t65.5 16t37 43t16.5 60.5t4 66.5v338q0 33 -4 66.5t-16.5 60t-37 43t-65.5 16.5t-64.5 -17.5t-35.5 -44t-16.5 -59 t-4.5 -65.5v-338zM307 -120h178v-182h-178v182z" />
<glyph unicode="&#x1eda;" horiz-adv-x="925" d="M90 434v498q0 86 13.5 168t64.5 153q51 72 130 102.5t165 30.5q88 0 165 -30q47 -19 85 -53l31 97h-71v169h153v-169l-64 -153q50 -66 62 -147q12 -84 12 -168v-498q0 -88 -12.5 -169t-65.5 -154q-51 -72 -130 -101.5t-165 -29.5t-164 29.5t-131 101.5q-53 69 -65.5 154 t-12.5 169zM301 438q0 -45 3 -91t18.5 -84t48 -61.5t92.5 -23.5q59 0 92 23.5t48 61.5t18.5 84t3.5 91v490q0 47 -2 95t-25 91q-20 37 -57 55.5t-78 18.5q-60 0 -92.5 -23.5t-48 -61.5t-18.5 -84t-3 -91v-490zM379 1475l92 182h199l-148 -182h-143z" />
<glyph unicode="&#x1edb;" d="M81 350v316q0 39 1 77.5t9 75.5t24.5 71t45.5 64q47 47 107.5 65.5t123.5 18.5q66 0 126 -18q54 -17 98 -59l32 98h-71v169h153v-169l-65 -157q3 -5 6 -11q16 -35 23 -72t9.5 -75.5t2.5 -77.5v-316q0 -80 -11.5 -154.5t-70.5 -134.5q-47 -47 -107.5 -64t-124.5 -17 q-65 0 -124.5 18t-106.5 63q-60 56 -70 133.5t-10 155.5zM271 340q0 -33 4.5 -65.5t16.5 -59.5t35.5 -44t64.5 -17t65.5 16t37 43t16.5 60.5t4 66.5v338q0 33 -4 66.5t-16.5 60t-37 43t-65.5 16.5t-64.5 -17.5t-35.5 -44t-16.5 -59t-4.5 -65.5v-338zM308 1184l94 182h199 l-149 -182h-144z" />
<glyph unicode="&#x1edc;" horiz-adv-x="925" d="M90 434v498q0 86 13.5 168t64.5 153q51 72 130 102.5t165 30.5q88 0 165 -30q47 -19 85 -53l31 97h-71v169h153v-169l-64 -153q50 -66 62 -147q12 -84 12 -168v-498q0 -88 -12.5 -169t-65.5 -154q-51 -72 -130 -101.5t-165 -29.5t-164 29.5t-131 101.5q-53 69 -65.5 154 t-12.5 169zM256 1657h199l92 -182h-144zM301 438q0 -45 3 -91t18.5 -84t48 -61.5t92.5 -23.5q59 0 92 23.5t48 61.5t18.5 84t3.5 91v490q0 47 -2 95t-25 91q-20 37 -57 55.5t-78 18.5q-60 0 -92.5 -23.5t-48 -61.5t-18.5 -84t-3 -91v-490z" />
<glyph unicode="&#x1edd;" d="M81 350v316q0 39 1 77.5t9 75.5t24.5 71t45.5 64q47 47 107.5 65.5t123.5 18.5q66 0 126 -18q54 -17 98 -59l32 98h-71v169h153v-169l-65 -157q3 -5 6 -11q16 -35 23 -72t9.5 -75.5t2.5 -77.5v-316q0 -80 -11.5 -154.5t-70.5 -134.5q-47 -47 -107.5 -64t-124.5 -17 q-65 0 -124.5 18t-106.5 63q-60 56 -70 133.5t-10 155.5zM173 1366h197l94 -182h-143zM271 340q0 -33 4.5 -65.5t16.5 -59.5t35.5 -44t64.5 -17t65.5 16t37 43t16.5 60.5t4 66.5v338q0 33 -4 66.5t-16.5 60t-37 43t-65.5 16.5t-64.5 -17.5t-35.5 -44t-16.5 -59t-4.5 -65.5 v-338z" />
<glyph unicode="&#x1ede;" horiz-adv-x="925" d="M90 434v498q0 86 13.5 168t64.5 153q51 72 130 102.5t165 30.5q88 0 165 -30q47 -19 85 -53l31 97h-71v169h153v-169l-64 -153q50 -66 62 -147q12 -84 12 -168v-498q0 -88 -12.5 -169t-65.5 -154q-51 -72 -130 -101.5t-165 -29.5t-164 29.5t-131 101.5q-53 69 -65.5 154 t-12.5 169zM281 1702q23 69 65 109.5t125 40.5q33 0 63 -10t51.5 -28.5t33.5 -44.5t12 -56q0 -39 -15.5 -67.5t-35.5 -59.5q-20 -30 -33.5 -51.5t-20.5 -44.5q-5 -14 -9 -40h-121q2 19 5 33q4 25 14 49.5t22.5 49t28.5 54.5q12 17 20.5 37t8.5 40q0 21 -8.5 30t-21.5 9 q-9 0 -17 -6t-16.5 -16.5t-14 -25t-12.5 -39.5zM301 438q0 -45 3 -91t18.5 -84t48 -61.5t92.5 -23.5q59 0 92 23.5t48 61.5t18.5 84t3.5 91v490q0 47 -2 95t-25 91q-20 37 -57 55.5t-78 18.5q-60 0 -92.5 -23.5t-48 -61.5t-18.5 -84t-3 -91v-490z" />
<glyph unicode="&#x1edf;" d="M81 350v316q0 39 1 77.5t9 75.5t24.5 71t45.5 64q47 47 107.5 65.5t123.5 18.5q66 0 126 -18q54 -17 98 -59l32 98h-71v169h153v-169l-65 -157q3 -5 6 -11q16 -35 23 -72t9.5 -75.5t2.5 -77.5v-316q0 -80 -11.5 -154.5t-70.5 -134.5q-47 -47 -107.5 -64t-124.5 -17 q-65 0 -124.5 18t-106.5 63q-60 56 -70 133.5t-10 155.5zM220 1350q23 69 65 109.5t125 40.5q33 0 63 -10t51.5 -28.5t33.5 -44.5t12 -56q0 -39 -15.5 -67.5t-35.5 -59.5q-20 -30 -33.5 -51.5t-20.5 -44.5q-5 -14 -9 -40h-121q2 19 5 33q4 25 14 49.5t22.5 49t28.5 54.5 q12 17 20.5 37t8.5 40q0 21 -8.5 30t-21.5 9q-9 0 -17 -6t-16.5 -16.5t-14 -25t-12.5 -39.5zM271 340q0 -33 4.5 -65.5t16.5 -59.5t35.5 -44t64.5 -17t65.5 16t37 43t16.5 60.5t4 66.5v338q0 33 -4 66.5t-16.5 60t-37 43t-65.5 16.5t-64.5 -17.5t-35.5 -44t-16.5 -59 t-4.5 -65.5v-338z" />
<glyph unicode="&#x1ee0;" horiz-adv-x="925" d="M90 434v498q0 86 13.5 168t64.5 153q51 72 130 102.5t165 30.5q88 0 165 -30q47 -19 85 -53l31 97h-71v169h153v-169l-64 -153q50 -66 62 -147q12 -84 12 -168v-498q0 -88 -12.5 -169t-65.5 -154q-51 -72 -130 -101.5t-165 -29.5t-164 29.5t-131 101.5q-53 69 -65.5 154 t-12.5 169zM258 1585v141q31 16 57.5 23.5t61.5 7.5q51 0 96 -19.5t94 -19.5q31 0 52.5 9t48.5 26v-144q-27 -14 -48.5 -24t-52.5 -10q-49 0 -94 20.5t-96 20.5q-35 0 -61.5 -7.5t-57.5 -23.5zM301 438q0 -45 3 -91t18.5 -84t48 -61.5t92.5 -23.5q59 0 92 23.5t48 61.5 t18.5 84t3.5 91v490q0 47 -2 95t-25 91q-20 37 -57 55.5t-78 18.5q-60 0 -92.5 -23.5t-48 -61.5t-18.5 -84t-3 -91v-490z" />
<glyph unicode="&#x1ee1;" d="M81 350v316q0 39 1 77.5t9 75.5t24.5 71t45.5 64q47 47 107.5 65.5t123.5 18.5q66 0 126 -18q54 -17 98 -59l32 98h-71v169h153v-169l-65 -157q3 -5 6 -11q16 -35 23 -72t9.5 -75.5t2.5 -77.5v-316q0 -80 -11.5 -154.5t-70.5 -134.5q-47 -47 -107.5 -64t-124.5 -17 q-65 0 -124.5 18t-106.5 63q-60 56 -70 133.5t-10 155.5zM217 1254v141q31 17 57.5 24t61.5 7q51 0 96.5 -19.5t96.5 -19.5q30 0 50.5 9.5t47.5 25.5v-143q-25 -15 -47.5 -25t-50.5 -10q-49 0 -95.5 20.5t-97.5 20.5q-35 0 -61.5 -7.5t-57.5 -23.5zM271 340q0 -33 4.5 -65.5 t16.5 -59.5t35.5 -44t64.5 -17t65.5 16t37 43t16.5 60.5t4 66.5v338q0 33 -4 66.5t-16.5 60t-37 43t-65.5 16.5t-64.5 -17.5t-35.5 -44t-16.5 -59t-4.5 -65.5v-338z" />
<glyph unicode="&#x1ee2;" horiz-adv-x="925" d="M90 434v498q0 86 13.5 168t64.5 153q51 72 130 102.5t165 30.5q88 0 165 -30q47 -19 85 -53l31 97h-71v169h153v-169l-64 -153q50 -66 62 -147q12 -84 12 -168v-498q0 -88 -12.5 -169t-65.5 -154q-51 -72 -130 -101.5t-165 -29.5t-164 29.5t-131 101.5q-53 69 -65.5 154 t-12.5 169zM301 438q0 -45 3 -91t18.5 -84t48 -61.5t92.5 -23.5q59 0 92 23.5t48 61.5t18.5 84t3.5 91v490q0 47 -2 95t-25 91q-20 37 -57 55.5t-78 18.5q-60 0 -92.5 -23.5t-48 -61.5t-18.5 -84t-3 -91v-490zM374 -120h178v-182h-178v182z" />
<glyph unicode="&#x1ee3;" d="M81 350v316q0 39 1 77.5t9 75.5t24.5 71t45.5 64q47 47 107.5 65.5t123.5 18.5q66 0 126 -18q54 -17 98 -59l32 98h-71v169h153v-169l-65 -157q3 -5 6 -11q16 -35 23 -72t9.5 -75.5t2.5 -77.5v-316q0 -80 -11.5 -154.5t-70.5 -134.5q-47 -47 -107.5 -64t-124.5 -17 q-65 0 -124.5 18t-106.5 63q-60 56 -70 133.5t-10 155.5zM271 340q0 -33 4.5 -65.5t16.5 -59.5t35.5 -44t64.5 -17t65.5 16t37 43t16.5 60.5t4 66.5v338q0 33 -4 66.5t-16.5 60t-37 43t-65.5 16.5t-64.5 -17.5t-35.5 -44t-16.5 -59t-4.5 -65.5v-338zM307 -120h178v-182h-178 v182z" />
<glyph unicode="&#x1ee4;" horiz-adv-x="929" d="M104 440v926h211v-960q0 -41 4 -82t19.5 -74t45 -52.5t80.5 -19.5q52 0 81.5 19.5t45 52.5t19.5 74t4 82v960h211v-926q0 -90 -11.5 -177t-66.5 -161q-49 -65 -126 -93.5t-157 -28.5q-84 0 -156.5 28.5t-125.5 93.5q-55 72 -66.5 162t-11.5 176zM373 -120h178v-182h-178 v182z" />
<glyph unicode="&#x1ee5;" d="M88 221v797h193v-746q0 -20 1 -40.5t8 -38t21.5 -28.5t40.5 -11q47 0 88 32.5t68 69.5v762h190v-1018h-190v131q-49 -59 -110.5 -102t-141.5 -43q-53 0 -86 20.5t-51.5 53t-24.5 75.5t-6 86zM308 -120h178v-182h-178v182z" />
<glyph unicode="&#x1ee6;" horiz-adv-x="929" d="M104 440v926h211v-960q0 -41 4 -82t19.5 -74t45 -52.5t80.5 -19.5q52 0 81.5 19.5t45 52.5t19.5 74t4 82v960h211v-926q0 -90 -11.5 -177t-66.5 -161q-49 -65 -126 -93.5t-157 -28.5q-84 0 -156.5 28.5t-125.5 93.5q-55 72 -66.5 162t-11.5 176zM281 1702 q22 69 64.5 109.5t125.5 40.5q33 0 63 -10t51.5 -28.5t33.5 -44.5t12 -56q0 -39 -16 -67.5t-35 -59.5q-20 -30 -33.5 -51.5t-21.5 -44.5q-5 -14 -9 -40h-120q2 19 4 33q5 25 14.5 49.5t22.5 49t29 54.5q11 17 20 37t9 40q0 21 -8.5 30t-21.5 9q-9 0 -17.5 -6t-16.5 -16.5 t-14 -25t-13 -39.5z" />
<glyph unicode="&#x1ee7;" d="M88 221v797h193v-746q0 -20 1 -40.5t8 -38t21.5 -28.5t40.5 -11q47 0 88 32.5t68 69.5v762h190v-1018h-190v131q-49 -59 -110.5 -102t-141.5 -43q-53 0 -86 20.5t-51.5 53t-24.5 75.5t-6 86zM221 1350q23 69 65 109.5t125 40.5q33 0 63 -10t51.5 -28.5t33.5 -44.5t12 -56 q0 -39 -15.5 -67.5t-35.5 -59.5q-20 -30 -33.5 -51.5t-21.5 -44.5q-4 -14 -8 -40h-121q2 19 5 33q4 25 14 49.5t22.5 49t28.5 54.5q12 17 20.5 37t8.5 40q0 21 -8.5 30t-21.5 9q-9 0 -17 -6t-16.5 -16.5t-14 -25t-12.5 -39.5z" />
<glyph unicode="&#x1ee8;" horiz-adv-x="929" d="M104 440v926h211v-960q0 -41 4.5 -82t19.5 -74t45 -52.5t81 -19.5t80.5 19.5t45 52.5t19.5 74t4 82v960h176l11 34h-71v169h153v-169l-58 -139v-821q0 -90 -11 -177t-66 -161q-50 -65 -126.5 -93.5t-156.5 -28.5q-84 0 -156.5 28.5t-126.5 93.5q-55 72 -66.5 162 t-11.5 176zM381 1475l92 182h199l-148 -182h-143z" />
<glyph unicode="&#x1ee9;" d="M88 221v797h193v-746q0 -20 1 -40.5t8 -38t21.5 -28.5t40.5 -11q47 0 88 32.5t68 69.5v762h168l13 41h-71v169h153v-169l-73 -175v-884h-190v131q-49 -59 -110.5 -102t-141.5 -43q-53 0 -86 20.5t-51.5 53t-24.5 75.5t-6 86zM309 1184l94 182h199l-149 -182h-144z" />
<glyph unicode="&#x1eea;" horiz-adv-x="929" d="M104 440v926h211v-960q0 -41 4.5 -82t19.5 -74t45 -52.5t81 -19.5t80.5 19.5t45 52.5t19.5 74t4 82v960h176l11 34h-71v169h153v-169l-58 -139v-821q0 -90 -11 -177t-66 -161q-50 -65 -126.5 -93.5t-156.5 -28.5q-84 0 -156.5 28.5t-126.5 93.5q-55 72 -66.5 162 t-11.5 176zM258 1657h199l92 -182h-143z" />
<glyph unicode="&#x1eeb;" d="M88 221v797h193v-746q0 -20 1 -40.5t8 -38t21.5 -28.5t40.5 -11q47 0 88 32.5t68 69.5v762h168l13 41h-71v169h153v-169l-73 -175v-884h-190v131q-49 -59 -110.5 -102t-141.5 -43q-53 0 -86 20.5t-51.5 53t-24.5 75.5t-6 86zM186 1366h199l94 -182h-145z" />
<glyph unicode="&#x1eec;" horiz-adv-x="929" d="M104 440v926h211v-960q0 -41 4.5 -82t19.5 -74t45 -52.5t81 -19.5t80.5 19.5t45 52.5t19.5 74t4 82v960h176l11 34h-71v169h153v-169l-58 -139v-821q0 -90 -11 -177t-66 -161q-50 -65 -126.5 -93.5t-156.5 -28.5q-84 0 -156.5 28.5t-126.5 93.5q-55 72 -66.5 162 t-11.5 176zM281 1702q23 69 65 109.5t125 40.5q33 0 63 -10t51.5 -28.5t33.5 -44.5t12 -56q0 -39 -15.5 -67.5t-35.5 -59.5q-20 -30 -33.5 -51.5t-20.5 -44.5q-5 -14 -9 -40h-121q2 19 5 33q4 25 14 49.5t22.5 49t28.5 54.5q12 17 20.5 37t8.5 40q0 21 -8.5 30t-21.5 9 q-9 0 -17 -6t-16.5 -16.5t-14 -25t-12.5 -39.5z" />
<glyph unicode="&#x1eed;" d="M88 221v797h193v-746q0 -20 1 -40.5t8 -38t21.5 -28.5t40.5 -11q47 0 88 32.5t68 69.5v762h168l13 41h-71v169h153v-169l-73 -175v-884h-190v131q-49 -59 -110.5 -102t-141.5 -43q-53 0 -86 20.5t-51.5 53t-24.5 75.5t-6 86zM221 1350q23 69 65 109.5t125 40.5 q33 0 63 -10t51.5 -28.5t33.5 -44.5t12 -56q0 -39 -15.5 -67.5t-35.5 -59.5q-20 -30 -33.5 -51.5t-20.5 -44.5q-5 -14 -9 -40h-121q2 19 5 33q4 25 14 49.5t22.5 49t28.5 54.5q12 17 20.5 37t8.5 40q0 21 -8.5 30t-21.5 9q-9 0 -17 -6t-16.5 -16.5t-14 -25t-12.5 -39.5z" />
<glyph unicode="&#x1eee;" horiz-adv-x="929" d="M104 440v926h211v-960q0 -41 4.5 -82t19.5 -74t45 -52.5t81 -19.5t80.5 19.5t45 52.5t19.5 74t4 82v960h176l11 34h-71v169h153v-169l-58 -139v-821q0 -90 -11 -177t-66 -161q-50 -65 -126.5 -93.5t-156.5 -28.5q-84 0 -156.5 28.5t-126.5 93.5q-55 72 -66.5 162 t-11.5 176zM258 1485v141q31 16 57.5 23.5t61.5 7.5q51 0 96 -19.5t94 -19.5q31 0 52.5 9t48.5 26v-144q-27 -14 -48.5 -24t-52.5 -10q-49 0 -94 20.5t-96 20.5q-35 0 -61.5 -7.5t-57.5 -23.5z" />
<glyph unicode="&#x1eef;" d="M88 221v797h193v-746q0 -20 1 -40.5t8 -38t21.5 -28.5t40.5 -11q47 0 88 32.5t68 69.5v762h168l13 41h-71v169h153v-169l-73 -175v-884h-190v131q-49 -59 -110.5 -102t-141.5 -43q-53 0 -86 20.5t-51.5 53t-24.5 75.5t-6 86zM188 1194v141q31 17 57.5 24t61.5 7 q51 0 96.5 -19.5t96.5 -19.5q30 0 50.5 9.5t47.5 25.5v-143q-25 -15 -47.5 -25t-50.5 -10q-49 0 -95.5 20.5t-97.5 20.5q-35 0 -61.5 -7.5t-57.5 -23.5z" />
<glyph unicode="&#x1ef0;" horiz-adv-x="929" d="M104 440v926h211v-960q0 -41 4.5 -82t19.5 -74t45 -52.5t81 -19.5t80.5 19.5t45 52.5t19.5 74t4 82v960h176l11 34h-71v169h153v-169l-58 -139v-821q0 -90 -11 -177t-66 -161q-50 -65 -126.5 -93.5t-156.5 -28.5q-84 0 -156.5 28.5t-126.5 93.5q-55 72 -66.5 162 t-11.5 176zM374 -120h178v-182h-178v182z" />
<glyph unicode="&#x1ef1;" d="M88 221v797h193v-746q0 -20 1 -40.5t8 -38t21.5 -28.5t40.5 -11q47 0 88 32.5t68 69.5v762h168l13 41h-71v169h153v-169l-73 -175v-884h-190v131q-49 -59 -110.5 -102t-141.5 -43q-53 0 -86 20.5t-51.5 53t-24.5 75.5t-6 86zM308 -120h178v-182h-178v182z" />
<glyph unicode="&#x1ef2;" horiz-adv-x="901" d="M34 1366h231l183 -578l190 578h230l-316 -834v-532h-213v532zM257 1657h199l92 -182h-143z" />
<glyph unicode="&#x1ef3;" horiz-adv-x="724" d="M20 1018h201l149 -696l137 696h197l-221 -975q-12 -55 -26.5 -113.5t-38 -110.5t-61.5 -94t-97 -63q-52 -18 -104 -20t-105 -4v196q8 0 15 -1t15 -1q78 0 127.5 44t49.5 124q0 23 -5.5 44.5t-9.5 43.5zM186 1366h199l94 -182h-146z" />
<glyph unicode="&#x1ef4;" horiz-adv-x="901" d="M34 1366h231l183 -578l190 578h230l-316 -834v-532h-213v532zM353 -120h178v-182h-178v182z" />
<glyph unicode="&#x1ef5;" horiz-adv-x="724" d="M20 1018h201l149 -696l137 696h197l-221 -975q-12 -55 -26.5 -113.5t-38 -110.5t-61.5 -94t-97 -63q-52 -18 -104 -20t-105 -4v196q8 0 15 -1t15 -1q78 0 127.5 44t49.5 124q0 23 -5.5 44.5t-9.5 43.5zM478 -120h178v-182h-178v182z" />
<glyph unicode="&#x1ef6;" horiz-adv-x="901" d="M34 1366h231l183 -578l190 578h230l-316 -834v-532h-213v532zM281 1702q22 69 64 109.5t125 40.5q34 0 63.5 -10t51 -28.5t33.5 -44.5t12 -56q0 -39 -15.5 -67.5t-35.5 -59.5q-19 -30 -33 -51.5t-21 -44.5q-5 -14 -9 -40h-120q1 19 4 33q4 25 14 49.5t23 49t28 54.5 q12 17 21 37t9 40q0 21 -9 30t-21 9q-9 0 -17.5 -6t-16.5 -16.5t-14 -25t-13 -39.5z" />
<glyph unicode="&#x1ef7;" horiz-adv-x="724" d="M20 1018h201l149 -696l137 696h197l-221 -975q-12 -55 -26.5 -113.5t-38 -110.5t-61.5 -94t-97 -63q-52 -18 -104 -20t-105 -4v196q8 0 15 -1t15 -1q78 0 127.5 44t49.5 124q0 23 -5.5 44.5t-9.5 43.5zM201 1350q22 69 64.5 109.5t125.5 40.5q33 0 63 -10t51.5 -28.5 t33.5 -44.5t12 -56q0 -39 -16 -67.5t-35 -59.5q-20 -30 -33.5 -51.5t-21.5 -44.5q-5 -14 -9 -40h-120q2 19 4 33q5 25 14.5 49.5t22.5 49t29 54.5q11 17 20 37t9 40q0 21 -8.5 30t-21.5 9q-9 0 -17.5 -6t-16.5 -16.5t-14 -25t-13 -39.5z" />
<glyph unicode="&#x1ef8;" horiz-adv-x="901" d="M34 1366h231l183 -578l190 578h230l-316 -834v-532h-213v532zM257 1485v141q31 16 57.5 23.5t61.5 7.5q51 0 96 -19.5t94 -19.5q31 0 52.5 9t48.5 26v-144q-27 -14 -48.5 -24t-52.5 -10q-49 0 -94 20.5t-96 20.5q-35 0 -61.5 -7.5t-57.5 -23.5z" />
<glyph unicode="&#x1ef9;" horiz-adv-x="724" d="M20 1018h201l149 -696l137 696h197l-221 -975q-12 -55 -26.5 -113.5t-38 -110.5t-61.5 -94t-97 -63q-52 -18 -104 -20t-105 -4v196q8 0 15 -1t15 -1q78 0 127.5 44t49.5 124q0 23 -5.5 44.5t-9.5 43.5zM188 1194v141q31 17 57.5 24t61.5 7q51 0 96 -19.5t96 -19.5 q31 0 51.5 9.5t47.5 25.5v-143q-25 -15 -47.5 -25t-51.5 -10q-49 0 -95 20.5t-97 20.5q-35 0 -61.5 -7.5t-57.5 -23.5z" />
<glyph unicode="&#x2000;" horiz-adv-x="1019" />
<glyph unicode="&#x2001;" horiz-adv-x="2038" />
<glyph unicode="&#x2002;" horiz-adv-x="1019" />
<glyph unicode="&#x2003;" horiz-adv-x="2038" />
<glyph unicode="&#x2004;" horiz-adv-x="679" />
<glyph unicode="&#x2005;" horiz-adv-x="509" />
<glyph unicode="&#x2006;" horiz-adv-x="339" />
<glyph unicode="&#x2007;" horiz-adv-x="339" />
<glyph unicode="&#x2008;" horiz-adv-x="254" />
<glyph unicode="&#x2009;" horiz-adv-x="407" />
<glyph unicode="&#x200a;" horiz-adv-x="113" />
<glyph unicode="&#x2010;" horiz-adv-x="292" d="M0 434v170h293v-170h-293z" />
<glyph unicode="&#x2011;" horiz-adv-x="292" d="M0 434v170h293v-170h-293z" />
<glyph unicode="&#x2012;" horiz-adv-x="292" d="M0 434v170h293v-170h-293z" />
<glyph unicode="&#x2013;" horiz-adv-x="1023" d="M0 434v170h1024v-170h-1024z" />
<glyph unicode="&#x2014;" horiz-adv-x="2047" d="M0 434v170h2048v-170h-2048z" />
<glyph unicode="&#x2018;" horiz-adv-x="362" d="M81 864v219l119 283h80l-93 -283h93v-219h-199z" />
<glyph unicode="&#x2019;" horiz-adv-x="362" d="M81 864l90 283h-90v219h199v-219l-121 -283h-78z" />
<glyph unicode="&#x201c;" horiz-adv-x="661" d="M81 864v219l119 283h80l-93 -283h93v-219h-199zM382 864v219l119 283h78l-90 -283h90v-219h-197z" />
<glyph unicode="&#x201d;" horiz-adv-x="661" d="M81 864l90 283h-90v219h199v-219l-121 -283h-78zM382 864l90 283h-90v219h197v-219l-119 -283h-78z" />
<glyph unicode="&#x2026;" horiz-adv-x="1064" d="M77 0v219h199v-219h-199zM433 0v219h197v-219h-197zM788 0v219h198v-219h-198z" />
<glyph unicode="&#x202f;" horiz-adv-x="407" />
<glyph unicode="&#x205f;" horiz-adv-x="509" />
<glyph unicode="&#xe000;" horiz-adv-x="1020" d="M0 0v1020h1020v-1020h-1020z" />
</font>
</defs>
</svg>
